<?xml version="1.0" encoding="utf-8" standalone="no"?>
<!DOCTYPE svg PUBLIC "-//W3C//DTD SVG 1.1//EN"
  "http://www.w3.org/Graphics/SVG/1.1/DTD/svg11.dtd">
<svg xmlns:xlink="http://www.w3.org/1999/xlink" width="825.431875pt" height="598.128426pt" viewBox="0 0 825.431875 598.128426" xmlns="http://www.w3.org/2000/svg" version="1.1">
 <metadata>
  <rdf:RDF xmlns:dc="http://purl.org/dc/elements/1.1/" xmlns:cc="http://creativecommons.org/ns#" xmlns:rdf="http://www.w3.org/1999/02/22-rdf-syntax-ns#">
   <cc:Work>
    <dc:type rdf:resource="http://purl.org/dc/dcmitype/StillImage"/>
    <dc:date>2023-01-18T08:38:43.223575</dc:date>
    <dc:format>image/svg+xml</dc:format>
    <dc:creator>
     <cc:Agent>
      <dc:title>Matplotlib v3.5.1, https://matplotlib.org/</dc:title>
     </cc:Agent>
    </dc:creator>
   </cc:Work>
  </rdf:RDF>
 </metadata>
 <defs>
  <style type="text/css">*{stroke-linejoin: round; stroke-linecap: butt}</style>
 </defs>
 <g id="figure_1">
  <g id="patch_1">
   <path d="M 0 598.128426 
L 825.431875 598.128426 
L 825.431875 0 
L 0 0 
z
" style="fill: #ffffff"/>
  </g>
  <g id="axes_1">
   <g id="patch_2">
    <path d="M 97.696875 323.663314 
L 818.231875 323.663314 
L 818.231875 121.525466 
L 97.696875 121.525466 
z
" style="fill: #eaeaf2"/>
   </g>
   <g id="matplotlib.axis_1">
    <g id="xtick_1">
     <g id="line2d_1">
      <path d="M 219.167369 323.663314 
L 219.167369 121.525466 
" clip-path="url(#pb5c51ef3e8)" style="fill: none; stroke: #ffffff; stroke-linecap: round"/>
     </g>
    </g>
    <g id="xtick_2">
     <g id="line2d_2">
      <path d="M 345.299844 323.663314 
L 345.299844 121.525466 
" clip-path="url(#pb5c51ef3e8)" style="fill: none; stroke: #ffffff; stroke-linecap: round"/>
     </g>
    </g>
    <g id="xtick_3">
     <g id="line2d_3">
      <path d="M 471.432319 323.663314 
L 471.432319 121.525466 
" clip-path="url(#pb5c51ef3e8)" style="fill: none; stroke: #ffffff; stroke-linecap: round"/>
     </g>
    </g>
    <g id="xtick_4">
     <g id="line2d_4">
      <path d="M 597.564794 323.663314 
L 597.564794 121.525466 
" clip-path="url(#pb5c51ef3e8)" style="fill: none; stroke: #ffffff; stroke-linecap: round"/>
     </g>
    </g>
    <g id="xtick_5">
     <g id="line2d_5">
      <path d="M 723.697269 323.663314 
L 723.697269 121.525466 
" clip-path="url(#pb5c51ef3e8)" style="fill: none; stroke: #ffffff; stroke-linecap: round"/>
     </g>
    </g>
   </g>
   <g id="matplotlib.axis_2">
    <g id="ytick_1">
     <g id="line2d_6">
      <path d="M 97.696875 317.761912 
L 818.231875 317.761912 
" clip-path="url(#pb5c51ef3e8)" style="fill: none; stroke: #ffffff; stroke-linecap: round"/>
     </g>
     <g id="text_1">
      <!-- 10:30 -->
      <g style="fill: #262626" transform="translate(33.14875 325.635506)scale(0.22 -0.22)">
       <defs>
        <path id="ArialMT-31" d="M 2384 0 
L 1822 0 
L 1822 3584 
Q 1619 3391 1289 3197 
Q 959 3003 697 2906 
L 697 3450 
Q 1169 3672 1522 3987 
Q 1875 4303 2022 4600 
L 2384 4600 
L 2384 0 
z
" transform="scale(0.015625)"/>
        <path id="ArialMT-30" d="M 266 2259 
Q 266 3072 433 3567 
Q 600 4063 929 4331 
Q 1259 4600 1759 4600 
Q 2128 4600 2406 4451 
Q 2684 4303 2865 4023 
Q 3047 3744 3150 3342 
Q 3253 2941 3253 2259 
Q 3253 1453 3087 958 
Q 2922 463 2592 192 
Q 2263 -78 1759 -78 
Q 1097 -78 719 397 
Q 266 969 266 2259 
z
M 844 2259 
Q 844 1131 1108 757 
Q 1372 384 1759 384 
Q 2147 384 2411 759 
Q 2675 1134 2675 2259 
Q 2675 3391 2411 3762 
Q 2147 4134 1753 4134 
Q 1366 4134 1134 3806 
Q 844 3388 844 2259 
z
" transform="scale(0.015625)"/>
        <path id="ArialMT-3a" d="M 578 2678 
L 578 3319 
L 1219 3319 
L 1219 2678 
L 578 2678 
z
M 578 0 
L 578 641 
L 1219 641 
L 1219 0 
L 578 0 
z
" transform="scale(0.015625)"/>
        <path id="ArialMT-33" d="M 269 1209 
L 831 1284 
Q 928 806 1161 595 
Q 1394 384 1728 384 
Q 2125 384 2398 659 
Q 2672 934 2672 1341 
Q 2672 1728 2419 1979 
Q 2166 2231 1775 2231 
Q 1616 2231 1378 2169 
L 1441 2663 
Q 1497 2656 1531 2656 
Q 1891 2656 2178 2843 
Q 2466 3031 2466 3422 
Q 2466 3731 2256 3934 
Q 2047 4138 1716 4138 
Q 1388 4138 1169 3931 
Q 950 3725 888 3313 
L 325 3413 
Q 428 3978 793 4289 
Q 1159 4600 1703 4600 
Q 2078 4600 2393 4439 
Q 2709 4278 2876 4000 
Q 3044 3722 3044 3409 
Q 3044 3113 2884 2869 
Q 2725 2625 2413 2481 
Q 2819 2388 3044 2092 
Q 3269 1797 3269 1353 
Q 3269 753 2831 336 
Q 2394 -81 1725 -81 
Q 1122 -81 723 278 
Q 325 638 269 1209 
z
" transform="scale(0.015625)"/>
       </defs>
       <use xlink:href="#ArialMT-31"/>
       <use xlink:href="#ArialMT-30" x="55.615234"/>
       <use xlink:href="#ArialMT-3a" x="111.230469"/>
       <use xlink:href="#ArialMT-33" x="139.013672"/>
       <use xlink:href="#ArialMT-30" x="194.628906"/>
      </g>
     </g>
    </g>
    <g id="ytick_2">
     <g id="line2d_7">
      <path d="M 97.696875 262.362982 
L 818.231875 262.362982 
" clip-path="url(#pb5c51ef3e8)" style="fill: none; stroke: #ffffff; stroke-linecap: round"/>
     </g>
     <g id="text_2">
      <!-- 11:00 -->
      <g style="fill: #262626" transform="translate(34.77125 270.236576)scale(0.22 -0.22)">
       <use xlink:href="#ArialMT-31"/>
       <use xlink:href="#ArialMT-31" x="48.240234"/>
       <use xlink:href="#ArialMT-3a" x="103.855469"/>
       <use xlink:href="#ArialMT-30" x="131.638672"/>
       <use xlink:href="#ArialMT-30" x="187.253906"/>
      </g>
     </g>
    </g>
    <g id="ytick_3">
     <g id="line2d_8">
      <path d="M 97.696875 206.964052 
L 818.231875 206.964052 
" clip-path="url(#pb5c51ef3e8)" style="fill: none; stroke: #ffffff; stroke-linecap: round"/>
     </g>
     <g id="text_3">
      <!-- 11:30 -->
      <g style="fill: #262626" transform="translate(34.77125 214.837646)scale(0.22 -0.22)">
       <use xlink:href="#ArialMT-31"/>
       <use xlink:href="#ArialMT-31" x="48.240234"/>
       <use xlink:href="#ArialMT-3a" x="103.855469"/>
       <use xlink:href="#ArialMT-33" x="131.638672"/>
       <use xlink:href="#ArialMT-30" x="187.253906"/>
      </g>
     </g>
    </g>
    <g id="ytick_4">
     <g id="line2d_9">
      <path d="M 97.696875 151.565123 
L 818.231875 151.565123 
" clip-path="url(#pb5c51ef3e8)" style="fill: none; stroke: #ffffff; stroke-linecap: round"/>
     </g>
     <g id="text_4">
      <!-- 12:00 -->
      <g style="fill: #262626" transform="translate(33.14875 159.438716)scale(0.22 -0.22)">
       <defs>
        <path id="ArialMT-32" d="M 3222 541 
L 3222 0 
L 194 0 
Q 188 203 259 391 
Q 375 700 629 1000 
Q 884 1300 1366 1694 
Q 2113 2306 2375 2664 
Q 2638 3022 2638 3341 
Q 2638 3675 2398 3904 
Q 2159 4134 1775 4134 
Q 1369 4134 1125 3890 
Q 881 3647 878 3216 
L 300 3275 
Q 359 3922 746 4261 
Q 1134 4600 1788 4600 
Q 2447 4600 2831 4234 
Q 3216 3869 3216 3328 
Q 3216 3053 3103 2787 
Q 2991 2522 2730 2228 
Q 2469 1934 1863 1422 
Q 1356 997 1212 845 
Q 1069 694 975 541 
L 3222 541 
z
" transform="scale(0.015625)"/>
       </defs>
       <use xlink:href="#ArialMT-31"/>
       <use xlink:href="#ArialMT-32" x="55.615234"/>
       <use xlink:href="#ArialMT-3a" x="111.230469"/>
       <use xlink:href="#ArialMT-30" x="139.013672"/>
       <use xlink:href="#ArialMT-30" x="194.628906"/>
      </g>
     </g>
    </g>
    <g id="text_5">
     <!-- Local Time -->
     <g style="fill: #262626" transform="translate(24.37875 280.61814)rotate(-90)scale(0.24 -0.24)">
      <defs>
       <path id="ArialMT-4c" d="M 469 0 
L 469 4581 
L 1075 4581 
L 1075 541 
L 3331 541 
L 3331 0 
L 469 0 
z
" transform="scale(0.015625)"/>
       <path id="ArialMT-6f" d="M 213 1659 
Q 213 2581 725 3025 
Q 1153 3394 1769 3394 
Q 2453 3394 2887 2945 
Q 3322 2497 3322 1706 
Q 3322 1066 3130 698 
Q 2938 331 2570 128 
Q 2203 -75 1769 -75 
Q 1072 -75 642 372 
Q 213 819 213 1659 
z
M 791 1659 
Q 791 1022 1069 705 
Q 1347 388 1769 388 
Q 2188 388 2466 706 
Q 2744 1025 2744 1678 
Q 2744 2294 2464 2611 
Q 2184 2928 1769 2928 
Q 1347 2928 1069 2612 
Q 791 2297 791 1659 
z
" transform="scale(0.015625)"/>
       <path id="ArialMT-63" d="M 2588 1216 
L 3141 1144 
Q 3050 572 2676 248 
Q 2303 -75 1759 -75 
Q 1078 -75 664 370 
Q 250 816 250 1647 
Q 250 2184 428 2587 
Q 606 2991 970 3192 
Q 1334 3394 1763 3394 
Q 2303 3394 2647 3120 
Q 2991 2847 3088 2344 
L 2541 2259 
Q 2463 2594 2264 2762 
Q 2066 2931 1784 2931 
Q 1359 2931 1093 2626 
Q 828 2322 828 1663 
Q 828 994 1084 691 
Q 1341 388 1753 388 
Q 2084 388 2306 591 
Q 2528 794 2588 1216 
z
" transform="scale(0.015625)"/>
       <path id="ArialMT-61" d="M 2588 409 
Q 2275 144 1986 34 
Q 1697 -75 1366 -75 
Q 819 -75 525 192 
Q 231 459 231 875 
Q 231 1119 342 1320 
Q 453 1522 633 1644 
Q 813 1766 1038 1828 
Q 1203 1872 1538 1913 
Q 2219 1994 2541 2106 
Q 2544 2222 2544 2253 
Q 2544 2597 2384 2738 
Q 2169 2928 1744 2928 
Q 1347 2928 1158 2789 
Q 969 2650 878 2297 
L 328 2372 
Q 403 2725 575 2942 
Q 747 3159 1072 3276 
Q 1397 3394 1825 3394 
Q 2250 3394 2515 3294 
Q 2781 3194 2906 3042 
Q 3031 2891 3081 2659 
Q 3109 2516 3109 2141 
L 3109 1391 
Q 3109 606 3145 398 
Q 3181 191 3288 0 
L 2700 0 
Q 2613 175 2588 409 
z
M 2541 1666 
Q 2234 1541 1622 1453 
Q 1275 1403 1131 1340 
Q 988 1278 909 1158 
Q 831 1038 831 891 
Q 831 666 1001 516 
Q 1172 366 1500 366 
Q 1825 366 2078 508 
Q 2331 650 2450 897 
Q 2541 1088 2541 1459 
L 2541 1666 
z
" transform="scale(0.015625)"/>
       <path id="ArialMT-6c" d="M 409 0 
L 409 4581 
L 972 4581 
L 972 0 
L 409 0 
z
" transform="scale(0.015625)"/>
       <path id="ArialMT-20" transform="scale(0.015625)"/>
       <path id="ArialMT-54" d="M 1659 0 
L 1659 4041 
L 150 4041 
L 150 4581 
L 3781 4581 
L 3781 4041 
L 2266 4041 
L 2266 0 
L 1659 0 
z
" transform="scale(0.015625)"/>
       <path id="ArialMT-69" d="M 425 3934 
L 425 4581 
L 988 4581 
L 988 3934 
L 425 3934 
z
M 425 0 
L 425 3319 
L 988 3319 
L 988 0 
L 425 0 
z
" transform="scale(0.015625)"/>
       <path id="ArialMT-6d" d="M 422 0 
L 422 3319 
L 925 3319 
L 925 2853 
Q 1081 3097 1340 3245 
Q 1600 3394 1931 3394 
Q 2300 3394 2536 3241 
Q 2772 3088 2869 2813 
Q 3263 3394 3894 3394 
Q 4388 3394 4653 3120 
Q 4919 2847 4919 2278 
L 4919 0 
L 4359 0 
L 4359 2091 
Q 4359 2428 4304 2576 
Q 4250 2725 4106 2815 
Q 3963 2906 3769 2906 
Q 3419 2906 3187 2673 
Q 2956 2441 2956 1928 
L 2956 0 
L 2394 0 
L 2394 2156 
Q 2394 2531 2256 2718 
Q 2119 2906 1806 2906 
Q 1569 2906 1367 2781 
Q 1166 2656 1075 2415 
Q 984 2175 984 1722 
L 984 0 
L 422 0 
z
" transform="scale(0.015625)"/>
       <path id="ArialMT-65" d="M 2694 1069 
L 3275 997 
Q 3138 488 2766 206 
Q 2394 -75 1816 -75 
Q 1088 -75 661 373 
Q 234 822 234 1631 
Q 234 2469 665 2931 
Q 1097 3394 1784 3394 
Q 2450 3394 2872 2941 
Q 3294 2488 3294 1666 
Q 3294 1616 3291 1516 
L 816 1516 
Q 847 969 1125 678 
Q 1403 388 1819 388 
Q 2128 388 2347 550 
Q 2566 713 2694 1069 
z
M 847 1978 
L 2700 1978 
Q 2663 2397 2488 2606 
Q 2219 2931 1791 2931 
Q 1403 2931 1139 2672 
Q 875 2413 847 1978 
z
" transform="scale(0.015625)"/>
      </defs>
      <use xlink:href="#ArialMT-4c"/>
      <use xlink:href="#ArialMT-6f" x="55.615234"/>
      <use xlink:href="#ArialMT-63" x="111.230469"/>
      <use xlink:href="#ArialMT-61" x="161.230469"/>
      <use xlink:href="#ArialMT-6c" x="216.845703"/>
      <use xlink:href="#ArialMT-20" x="239.0625"/>
      <use xlink:href="#ArialMT-54" x="265.095703"/>
      <use xlink:href="#ArialMT-69" x="322.429688"/>
      <use xlink:href="#ArialMT-6d" x="344.646484"/>
      <use xlink:href="#ArialMT-65" x="427.947266"/>
     </g>
    </g>
   </g>
   <g id="line2d_10">
    <path d="M 728.618248 323.663314 
L 728.618248 121.525466 
" clip-path="url(#pb5c51ef3e8)" style="fill: none; stroke-dasharray: 5.55,2.4; stroke-dashoffset: 0; stroke: #1a1a1a; stroke-width: 1.5"/>
   </g>
   <g id="line2d_11">
    <path d="M 156.144298 323.663314 
L 156.144298 121.525466 
" clip-path="url(#pb5c51ef3e8)" style="fill: none; stroke-dasharray: 5.55,2.4; stroke-dashoffset: 0; stroke: #1a1a1a; stroke-width: 1.5"/>
   </g>
   <g id="line2d_12">
    <path d="M 98.12854 152.121375 
L 100.804862 148.88825 
L 103.394851 138.944213 
L 106.071173 137.260453 
L 108.661163 136.764477 
L 111.337485 135.761161 
L 114.013807 132.165391 
L 116.603796 130.71355 
L 119.280118 141.05985 
L 121.870108 143.744492 
L 124.54643 144.942122 
L 127.222752 150.114976 
L 129.640075 158.959909 
L 132.316398 159.528415 
L 134.906387 156.360981 
L 137.582709 149.688582 
L 140.172698 152.107523 
L 142.84902 149.833394 
L 145.525343 149.075065 
L 148.115332 144.530666 
L 150.791654 159.246305 
L 153.381643 164.246161 
L 156.057965 164.004063 
L 158.734288 170.475677 
L 161.151611 179.111031 
L 163.827933 174.476716 
L 166.417922 172.456887 
L 169.094244 163.771941 
L 171.684234 159.476701 
L 174.360556 162.261241 
L 177.036878 158.539103 
L 179.626867 152.309877 
L 182.303189 167.017222 
L 184.893179 166.867644 
L 187.569501 168.018238 
L 190.245823 168.705566 
L 192.663146 179.800995 
L 195.339468 175.922607 
L 197.929458 173.039581 
L 200.60578 166.164457 
L 203.195769 160.783934 
L 205.872091 163.948373 
L 208.548413 158.628218 
L 211.138403 154.531293 
L 213.814725 164.103757 
L 216.404714 169.114303 
L 219.081036 168.221592 
L 221.757358 169.729035 
L 224.261015 178.598603 
L 226.937337 177.270612 
L 229.527326 173.441147 
L 232.203648 167.726625 
L 234.793638 163.086978 
L 237.46996 162.705948 
L 240.146282 160.019975 
L 242.736271 154.034322 
L 245.412593 168.381294 
L 248.002583 172.481178 
L 250.678905 169.863851 
L 253.355227 173.08848 
L 255.77255 180.968258 
L 258.448872 179.832223 
L 263.715184 166.816223 
L 266.305173 159.448164 
L 268.981495 163.563404 
L 271.657817 159.102374 
L 274.247807 156.029986 
L 279.514118 172.755467 
L 282.19044 170.182264 
L 284.866762 175.83103 
L 287.284086 180.170799 
L 289.960408 180.046115 
L 292.550397 176.866447 
L 295.226719 165.907358 
L 297.816708 159.762315 
L 300.493031 164.234985 
L 303.169353 159.79179 
L 305.759342 154.558235 
L 308.435664 166.568504 
L 311.025653 171.579842 
L 313.701976 166.99773 
L 316.378298 171.950412 
L 318.795621 180.589805 
L 321.471943 178.960746 
L 324.061933 170.299224 
L 326.738255 167.662469 
L 329.328244 162.067903 
L 332.004566 163.959737 
L 334.680888 158.719842 
L 337.270878 153.95306 
L 339.9472 167.289848 
L 342.537189 170.246352 
L 345.213511 167.728804 
L 347.889833 170.389036 
L 350.39349 181.338893 
L 353.069812 177.701215 
L 355.659801 173.488105 
L 358.336123 164.488393 
L 360.926112 161.60165 
L 363.602435 161.183608 
L 366.278757 156.73982 
L 368.868746 154.622637 
L 371.545068 162.801691 
L 374.135057 167.651146 
L 376.81138 165.096373 
L 379.487702 170.703953 
L 381.905025 181.018664 
L 384.581347 177.734572 
L 387.171336 172.861859 
L 389.847659 165.409905 
L 392.437648 162.460695 
L 395.11397 162.727168 
L 397.790292 161.810837 
L 400.380281 154.393966 
L 403.056604 167.335769 
L 405.646593 168.392074 
L 408.322915 168.457629 
L 410.999237 172.004621 
L 413.41656 180.118832 
L 416.092883 178.144612 
L 418.682872 172.107164 
L 421.359194 163.844798 
L 423.949183 160.380875 
L 426.625505 161.971457 
L 429.301828 156.16923 
L 431.891817 157.151918 
L 434.568139 164.614858 
L 437.158128 170.972827 
L 439.83445 169.027305 
L 442.510773 170.343902 
L 444.928096 182.99542 
L 447.604418 176.081483 
L 450.194407 174.57752 
L 452.87073 164.150706 
L 455.460719 163.659921 
L 458.137041 161.003265 
L 460.813363 159.791846 
L 463.403352 153.455417 
L 466.079675 166.617966 
L 468.669664 170.70384 
L 471.345986 167.933302 
L 474.022308 170.61156 
L 476.525964 181.34504 
L 479.202287 178.033406 
L 481.792276 175.451829 
L 484.468598 167.413602 
L 487.058587 166.317537 
L 489.734909 162.94685 
L 492.411232 158.020459 
L 495.001221 156.758935 
L 497.677543 164.313776 
L 500.267532 170.589785 
L 502.943854 166.999464 
L 508.0375 178.053194 
L 510.713822 177.502497 
L 513.303811 174.76928 
L 515.980133 166.179291 
L 518.570123 163.965665 
L 521.246445 161.976375 
L 523.922767 161.23839 
L 526.512756 153.221043 
L 529.189078 165.913921 
L 531.779068 169.619366 
L 534.45539 170.163531 
L 537.131712 173.189539 
L 539.549035 181.42166 
L 542.225358 175.803901 
L 544.815347 172.026624 
L 547.491669 164.617022 
L 550.081658 158.462884 
L 552.75798 161.353071 
L 555.434303 159.041099 
L 558.024292 153.624694 
L 560.700614 164.358685 
L 563.290603 169.52164 
L 565.966925 167.728499 
L 568.643248 167.830314 
L 571.060571 180.735293 
L 573.736893 177.827968 
L 576.326882 172.412777 
L 579.003204 166.31354 
L 581.593194 160.037601 
L 584.269516 159.658855 
L 586.945838 155.817274 
L 589.535827 154.790039 
L 592.212149 164.775935 
L 594.802139 168.834448 
L 597.478461 167.92076 
L 600.154783 169.750412 
L 602.658439 180.854352 
L 605.334761 174.989716 
L 607.924751 170.331706 
L 610.601073 160.421924 
L 613.191062 162.807139 
L 615.867384 163.664757 
L 618.543706 160.874906 
L 621.133696 156.241823 
L 623.810018 162.751739 
L 626.400007 167.121441 
L 629.076329 166.744367 
L 631.752651 169.573623 
L 634.169975 181.504618 
L 636.846297 177.539804 
L 639.436286 172.651131 
L 642.112608 164.226343 
L 644.702598 160.751525 
L 647.37892 164.663673 
L 650.055242 154.930931 
L 652.645231 153.752449 
L 655.321553 167.500719 
L 657.911543 170.120032 
L 660.587865 167.412127 
L 663.264187 170.371103 
L 665.68151 178.232755 
L 668.357832 178.793464 
L 670.947822 171.910339 
L 673.624144 166.145858 
L 676.214133 161.646718 
L 678.890455 162.550184 
L 681.566777 158.199603 
L 684.156767 156.0288 
L 686.833089 164.930576 
L 689.423078 166.886223 
L 692.0994 167.696066 
L 694.775722 169.735514 
L 697.193046 178.526733 
L 699.869368 175.631535 
L 702.459357 173.079422 
L 705.135679 164.81617 
L 707.725668 162.216817 
L 710.401991 162.90216 
L 713.078313 159.063568 
L 715.668302 156.986488 
L 718.344624 168.076756 
L 720.934613 167.869413 
L 723.610936 167.090205 
L 726.287258 169.532929 
L 728.790914 180.575564 
L 731.467236 177.802868 
L 734.057225 172.100543 
L 736.733548 164.680261 
L 739.323537 163.770366 
L 741.999859 161.338734 
L 744.676181 159.60391 
L 747.26617 157.215258 
L 749.942493 143.0472 
L 752.532482 170.176781 
L 755.208804 167.452592 
L 757.885126 169.430327 
L 760.30245 169.731336 
L 762.978772 178.302533 
L 765.568761 177.324265 
L 768.245083 168.512785 
L 770.835072 167.952088 
L 773.511395 168.724356 
L 776.187717 162.926785 
L 778.777706 163.036221 
L 781.454028 173.262981 
L 784.044017 179.437975 
L 786.72034 180.331543 
L 789.396662 183.363078 
L 791.813985 194.145042 
L 794.490307 191.846958 
L 797.080296 193.422026 
L 799.756619 183.511953 
L 802.346608 184.842313 
L 805.02293 186.533823 
L 807.699252 184.759283 
L 810.289241 181.944187 
L 812.965564 194.902745 
L 815.555553 203.648259 
L 818.231875 203.704086 
L 818.231875 203.704086 
" clip-path="url(#pb5c51ef3e8)" style="fill: none; stroke: #4c72b0; stroke-width: 1.5; stroke-linecap: round"/>
   </g>
   <g id="line2d_13">
    <path d="M 98.12854 213.549589 
L 100.804862 213.808102 
L 103.394851 220.514076 
L 106.071173 223.722217 
L 108.661163 224.993626 
L 111.337485 225.346088 
L 114.013807 225.931205 
L 116.603796 224.295608 
L 119.280118 217.167048 
L 121.870108 215.349871 
L 124.54643 223.742636 
L 127.222752 227.383302 
L 129.640075 228.199522 
L 132.316398 222.298239 
L 134.906387 229.669965 
L 137.582709 236.007332 
L 140.172698 235.535648 
L 142.84902 238.833297 
L 145.525343 240.346864 
L 148.115332 237.769432 
L 150.791654 231.978169 
L 153.381643 226.984759 
L 156.057965 235.296458 
L 158.734288 239.642967 
L 161.151611 236.817083 
L 163.827933 236.880093 
L 166.417922 246.571688 
L 169.094244 248.804529 
L 171.684234 249.331616 
L 174.360556 250.485948 
L 177.036878 247.609666 
L 179.626867 247.794331 
L 182.303189 236.438692 
L 184.893179 234.114478 
L 187.569501 242.84499 
L 190.245823 244.325191 
L 192.663146 243.931829 
L 195.339468 243.615873 
L 197.929458 242.729728 
L 200.60578 252.710326 
L 203.195769 252.377068 
L 205.872091 252.945865 
L 208.548413 252.970164 
L 211.138403 250.48809 
L 213.814725 241.271305 
L 216.404714 236.465847 
L 219.081036 241.627437 
L 221.757358 244.045918 
L 224.261015 238.892194 
L 226.937337 237.280482 
L 229.527326 246.570249 
L 232.203648 251.879289 
L 237.46996 254.291112 
L 240.146282 253.461099 
L 242.736271 251.468806 
L 245.412593 243.935549 
L 248.002583 236.995398 
L 250.678905 243.488986 
L 253.355227 247.274483 
L 255.77255 249.959362 
L 258.448872 241.463703 
L 261.038862 250.008636 
L 263.715184 253.116717 
L 266.305173 252.585848 
L 268.981495 253.53301 
L 271.657817 253.395904 
L 274.247807 250.759746 
L 276.924129 243.400401 
L 279.514118 237.096167 
L 282.19044 241.861475 
L 284.866762 245.296335 
L 287.284086 239.609887 
L 289.960408 239.232929 
L 292.550397 249.242381 
L 295.226719 250.986026 
L 297.816708 254.41621 
L 300.493031 252.509683 
L 303.169353 251.706383 
L 305.759342 249.374398 
L 311.025653 236.94231 
L 313.701976 243.881834 
L 316.378298 242.581797 
L 318.795621 238.046175 
L 321.471943 240.629828 
L 324.061933 248.16114 
L 326.738255 253.134973 
L 329.328244 251.020807 
L 332.004566 251.856864 
L 334.680888 252.380937 
L 337.270878 249.653786 
L 339.9472 239.675504 
L 342.537189 235.357421 
L 345.213511 237.756787 
L 347.889833 244.997112 
L 350.39349 240.219767 
L 353.069812 238.497745 
L 355.659801 247.297147 
L 358.336123 253.067394 
L 360.926112 251.811714 
L 363.602435 252.508448 
L 366.278757 249.724492 
L 368.868746 247.640471 
L 371.545068 240.139148 
L 374.135057 234.52846 
L 376.81138 241.477524 
L 379.487702 243.455407 
L 381.905025 241.1183 
L 384.581347 239.932061 
L 387.171336 246.358508 
L 389.847659 250.979171 
L 392.437648 251.058032 
L 395.11397 250.974059 
L 397.790292 252.135916 
L 400.380281 248.333088 
L 403.056604 238.774095 
L 405.646593 240.297936 
L 408.322915 245.34961 
L 410.999237 252.719199 
L 413.41656 247.812163 
L 416.092883 245.276665 
L 418.682872 246.946474 
L 421.359194 251.583782 
L 423.949183 250.345113 
L 426.625505 250.868873 
L 429.301828 252.670085 
L 431.891817 249.460308 
L 434.568139 244.439089 
L 437.158128 240.324681 
L 439.83445 247.399885 
L 442.510773 251.168648 
L 444.928096 246.368618 
L 447.604418 241.433309 
L 450.194407 246.909679 
L 452.87073 251.333059 
L 455.460719 253.702934 
L 458.137041 252.763103 
L 460.813363 252.698601 
L 463.403352 251.650269 
L 466.079675 241.261645 
L 468.669664 242.535293 
L 471.345986 243.624979 
L 474.022308 245.239609 
L 476.525964 247.78334 
L 479.202287 243.543931 
L 481.792276 249.65382 
L 484.468598 251.416505 
L 487.058587 251.378039 
L 489.734909 252.293636 
L 492.411232 251.251961 
L 495.001221 249.668178 
L 497.677543 241.925634 
L 500.267532 241.248179 
L 502.943854 250.331731 
L 505.620177 248.529978 
L 508.0375 246.490946 
L 510.713822 242.0431 
L 513.303811 247.270646 
L 515.980133 252.293533 
L 518.570123 250.836033 
L 521.246445 251.409266 
L 523.922767 252.749784 
L 526.512756 249.946937 
L 529.189078 241.858938 
L 531.779068 239.543973 
L 534.45539 242.893377 
L 537.131712 244.790748 
L 539.549035 251.972602 
L 542.225358 242.788224 
L 544.815347 246.977146 
L 547.491669 251.992423 
L 552.75798 251.743291 
L 558.024292 248.094894 
L 560.700614 240.341448 
L 563.290603 235.432988 
L 565.966925 240.82392 
L 568.643248 244.568558 
L 571.060571 241.347025 
L 573.736893 239.897287 
L 576.326882 246.746696 
L 579.003204 248.91578 
L 581.593194 250.804919 
L 584.269516 250.583897 
L 586.945838 249.748346 
L 589.535827 247.340933 
L 592.212149 241.744841 
L 594.802139 242.81705 
L 597.478461 245.534275 
L 600.154783 249.715217 
L 602.658439 245.796809 
L 605.334761 243.401776 
L 607.924751 249.212343 
L 610.601073 249.757321 
L 613.191062 251.440802 
L 615.867384 251.101306 
L 618.543706 251.577928 
L 621.133696 248.821429 
L 623.810018 238.200736 
L 626.400007 242.260558 
L 629.076329 243.875012 
L 631.752651 246.083021 
L 634.169975 245.55114 
L 636.846297 241.712864 
L 639.436286 248.212696 
L 642.112608 252.112381 
L 644.702598 251.955501 
L 647.37892 250.744156 
L 650.055242 250.720883 
L 652.645231 246.769608 
L 655.321553 242.397803 
L 657.911543 236.951274 
L 660.587865 241.248953 
L 663.264187 245.040596 
L 665.68151 244.768548 
L 668.357832 241.003124 
L 670.947822 244.638466 
L 673.624144 249.169717 
L 676.214133 250.983749 
L 678.890455 250.225848 
L 681.566777 251.138029 
L 684.156767 248.566148 
L 686.833089 241.703367 
L 689.423078 236.676011 
L 692.0994 239.357848 
L 694.775722 243.624958 
L 697.193046 243.535608 
L 699.869368 241.010243 
L 702.459357 247.12629 
L 705.135679 252.111772 
L 707.725668 249.839788 
L 710.401991 252.146537 
L 713.078313 250.489786 
L 715.668302 250.340483 
L 718.344624 239.853762 
L 720.934613 236.664111 
L 723.610936 241.293137 
L 726.287258 246.265298 
L 728.790914 243.161827 
L 731.467236 237.530009 
L 734.057225 249.325756 
L 736.733548 251.384378 
L 739.323537 249.476411 
L 741.999859 250.21219 
L 744.676181 250.70373 
L 747.26617 246.634393 
L 749.942493 238.939478 
L 752.532482 238.24139 
L 755.208804 246.42591 
L 757.885126 248.130595 
L 760.30245 243.54784 
L 762.978772 241.74864 
L 765.568761 250.24719 
L 768.245083 255.863549 
L 770.835072 255.932416 
L 773.511395 255.460761 
L 776.187717 258.648196 
L 778.777706 257.007602 
L 781.454028 249.172908 
L 784.044017 247.910714 
L 786.72034 248.123304 
L 789.396662 254.298066 
L 791.813985 257.111523 
L 794.490307 255.958931 
L 797.080296 265.933106 
L 799.756619 270.850177 
L 802.346608 272.465083 
L 807.699252 276.044226 
L 810.289241 276.666403 
L 812.965564 269.093796 
L 815.555553 267.598955 
L 818.231875 276.677243 
L 818.231875 276.677243 
" clip-path="url(#pb5c51ef3e8)" style="fill: none; stroke: #dd8452; stroke-width: 1.5; stroke-linecap: round"/>
   </g>
   <g id="line2d_14">
    <path d="M 98.12854 246.190182 
L 100.804862 256.676083 
L 103.394851 256.608344 
L 106.071173 257.551438 
L 108.661163 257.373397 
L 111.337485 257.348132 
L 114.013807 259.048348 
L 116.603796 258.823368 
L 119.280118 259.723869 
L 121.870108 255.991391 
L 124.54643 255.637191 
L 127.222752 257.104461 
L 129.640075 260.440914 
L 132.316398 264.340473 
L 134.906387 266.991245 
L 137.582709 267.310014 
L 140.172698 271.497316 
L 142.84902 270.523995 
L 145.525343 272.45788 
L 150.791654 275.837062 
L 153.381643 274.445515 
L 156.057965 271.925152 
L 158.734288 271.475856 
L 161.151611 277.535435 
L 163.827933 280.930791 
L 166.417922 283.265464 
L 169.094244 282.017917 
L 171.684234 282.907789 
L 174.360556 282.44486 
L 177.036878 282.541229 
L 179.626867 281.973583 
L 182.303189 283.128761 
L 184.893179 281.320879 
L 187.569501 276.493654 
L 190.245823 275.425373 
L 192.663146 277.160744 
L 195.339468 281.501051 
L 197.929458 284.240577 
L 200.60578 285.60533 
L 205.872091 285.715075 
L 208.548413 286.144078 
L 211.138403 284.937301 
L 213.814725 284.754923 
L 216.404714 283.106556 
L 219.081036 277.684004 
L 221.757358 275.597329 
L 224.261015 278.271542 
L 226.937337 283.811741 
L 229.527326 284.872146 
L 232.203648 285.207337 
L 234.793638 285.195325 
L 240.146282 286.388682 
L 242.736271 286.408202 
L 245.412593 287.075372 
L 248.002583 285.675061 
L 250.678905 278.095673 
L 253.355227 276.001249 
L 255.77255 277.730836 
L 258.448872 284.78057 
L 261.038862 286.086336 
L 263.715184 286.134049 
L 266.305173 286.902922 
L 268.981495 285.523547 
L 271.657817 286.373851 
L 274.247807 286.633259 
L 276.924129 286.216604 
L 279.514118 285.588578 
L 282.19044 280.829496 
L 284.866762 278.104167 
L 287.284086 280.12333 
L 289.960408 285.806098 
L 292.550397 286.459648 
L 295.226719 285.605845 
L 297.816708 285.219794 
L 300.493031 285.623377 
L 303.169353 285.087252 
L 305.759342 285.022109 
L 308.435664 285.704071 
L 311.025653 282.85647 
L 313.701976 277.014556 
L 316.378298 274.453439 
L 318.795621 279.907351 
L 321.471943 282.282059 
L 324.061933 284.7739 
L 326.738255 284.565845 
L 329.328244 285.377585 
L 332.004566 284.634937 
L 334.680888 284.247428 
L 337.270878 284.488151 
L 339.9472 285.533486 
L 342.537189 282.134929 
L 345.213511 277.632001 
L 347.889833 274.406514 
L 350.39349 278.090403 
L 353.069812 283.955528 
L 355.659801 284.434653 
L 358.336123 285.427878 
L 360.926112 284.638505 
L 363.602435 284.211362 
L 368.868746 284.352142 
L 371.545068 284.203347 
L 374.135057 282.628011 
L 376.81138 276.898613 
L 379.487702 275.436713 
L 384.581347 282.215716 
L 387.171336 283.451725 
L 389.847659 284.341896 
L 392.437648 283.943315 
L 395.11397 283.401786 
L 397.790292 284.032316 
L 403.056604 284.972968 
L 405.646593 282.137754 
L 408.322915 278.352563 
L 410.999237 277.449171 
L 413.41656 280.338028 
L 416.092883 285.058348 
L 418.682872 285.763684 
L 421.359194 284.52539 
L 423.949183 284.293518 
L 426.625505 283.811492 
L 429.301828 285.016949 
L 431.891817 284.366484 
L 434.568139 285.523053 
L 437.158128 283.633349 
L 439.83445 279.398956 
L 442.510773 277.177653 
L 444.928096 279.615815 
L 447.604418 284.387118 
L 450.194407 286.526194 
L 452.87073 285.007466 
L 455.460719 285.029444 
L 458.137041 285.523727 
L 460.813363 284.788659 
L 463.403352 285.640223 
L 466.079675 285.888166 
L 468.669664 283.190078 
L 471.345986 277.804865 
L 474.022308 275.714396 
L 476.525964 277.667105 
L 479.202287 283.496479 
L 481.792276 285.822111 
L 484.468598 283.426291 
L 487.058587 284.5082 
L 489.734909 285.281697 
L 492.411232 285.10918 
L 495.001221 284.773729 
L 497.677543 284.660648 
L 500.267532 283.485783 
L 502.943854 278.54807 
L 505.620177 276.317518 
L 508.0375 278.686049 
L 510.713822 282.466945 
L 513.303811 284.83181 
L 515.980133 284.46149 
L 518.570123 284.241203 
L 521.246445 284.610891 
L 523.922767 284.250407 
L 529.189078 284.627308 
L 531.779068 283.2392 
L 534.45539 276.656543 
L 537.131712 277.419077 
L 542.225358 282.970042 
L 544.815347 284.91603 
L 547.491669 285.567462 
L 550.081658 284.113528 
L 552.75798 283.495525 
L 555.434303 283.947049 
L 558.024292 283.568355 
L 560.700614 282.13681 
L 563.290603 282.129542 
L 565.966925 277.597953 
L 568.643248 275.370035 
L 571.060571 277.986303 
L 573.736893 283.390849 
L 576.326882 283.552618 
L 579.003204 283.481686 
L 581.593194 283.006976 
L 584.269516 284.53942 
L 586.945838 282.959918 
L 589.535827 282.922572 
L 592.212149 282.292017 
L 594.802139 282.516383 
L 597.478461 276.989835 
L 600.154783 276.742263 
L 602.658439 280.913425 
L 605.334761 283.862823 
L 607.924751 282.959357 
L 610.601073 284.181702 
L 613.191062 284.647216 
L 615.867384 283.359297 
L 618.543706 284.377682 
L 621.133696 283.707457 
L 623.810018 283.910175 
L 626.400007 281.458496 
L 629.076329 277.800123 
L 631.752651 276.042855 
L 634.169975 277.776595 
L 636.846297 282.851224 
L 639.436286 284.981673 
L 642.112608 283.990467 
L 647.37892 284.061599 
L 650.055242 283.798638 
L 652.645231 284.499205 
L 655.321553 284.299239 
L 657.911543 282.22448 
L 660.587865 277.330472 
L 663.264187 275.757326 
L 665.68151 280.20404 
L 668.357832 282.960458 
L 670.947822 283.717368 
L 673.624144 283.651697 
L 676.214133 283.166735 
L 678.890455 283.021493 
L 681.566777 284.073878 
L 684.156767 283.368086 
L 686.833089 284.068125 
L 689.423078 282.20843 
L 692.0994 278.629717 
L 694.775722 276.885981 
L 697.193046 278.017332 
L 699.869368 284.125637 
L 702.459357 283.306149 
L 705.135679 283.905533 
L 707.725668 284.609278 
L 710.401991 283.953562 
L 713.078313 284.625374 
L 715.668302 284.776185 
L 718.344624 284.275986 
L 720.934613 283.066971 
L 723.610936 277.534186 
L 726.287258 277.225904 
L 728.790914 280.905725 
L 731.467236 282.891431 
L 734.057225 285.695128 
L 739.323537 284.049619 
L 744.676181 284.72136 
L 747.26617 284.674365 
L 749.942493 284.313014 
L 752.532482 283.784165 
L 755.208804 277.873314 
L 757.885126 278.620691 
L 760.30245 282.717417 
L 762.978772 286.089663 
L 765.568761 288.495607 
L 768.245083 288.944372 
L 770.835072 289.924966 
L 773.511395 290.405186 
L 776.187717 291.487621 
L 781.454028 293.083376 
L 784.044017 292.170024 
L 786.72034 289.718268 
L 789.396662 287.631089 
L 791.813985 293.695766 
L 794.490307 298.477668 
L 797.080296 302.806361 
L 799.756619 303.606209 
L 802.346608 306.20103 
L 805.02293 307.818218 
L 807.699252 309.25622 
L 812.965564 314.47523 
L 815.555553 313.48031 
L 818.231875 310.534689 
L 818.231875 310.534689 
" clip-path="url(#pb5c51ef3e8)" style="fill: none; stroke: #55a868; stroke-width: 1.5; stroke-linecap: round"/>
   </g>
   <g id="patch_3">
    <path d="M 97.696875 323.663314 
L 97.696875 121.525466 
" style="fill: none; stroke: #ffffff; stroke-width: 1.25; stroke-linejoin: miter; stroke-linecap: square"/>
   </g>
   <g id="patch_4">
    <path d="M 818.231875 323.663314 
L 818.231875 121.525466 
" style="fill: none; stroke: #ffffff; stroke-width: 1.25; stroke-linejoin: miter; stroke-linecap: square"/>
   </g>
   <g id="patch_5">
    <path d="M 97.696875 323.663314 
L 818.231875 323.663314 
" style="fill: none; stroke: #ffffff; stroke-width: 1.25; stroke-linejoin: miter; stroke-linecap: square"/>
   </g>
   <g id="patch_6">
    <path d="M 97.696875 121.525466 
L 818.231875 121.525466 
" style="fill: none; stroke: #ffffff; stroke-width: 1.25; stroke-linejoin: miter; stroke-linecap: square"/>
   </g>
   <g id="text_6">
    <!-- a) Terra -->
    <g style="fill: #262626" transform="translate(11.232675 121.525466)scale(0.24 -0.24)">
     <defs>
      <path id="ArialMT-29" d="M 791 -1347 
L 388 -1347 
Q 1322 153 1322 1656 
Q 1322 2244 1188 2822 
Q 1081 3291 891 3722 
Q 769 4003 388 4659 
L 791 4659 
Q 1378 3875 1659 3084 
Q 1900 2403 1900 1659 
Q 1900 816 1576 28 
Q 1253 -759 791 -1347 
z
" transform="scale(0.015625)"/>
      <path id="ArialMT-72" d="M 416 0 
L 416 3319 
L 922 3319 
L 922 2816 
Q 1116 3169 1280 3281 
Q 1444 3394 1641 3394 
Q 1925 3394 2219 3213 
L 2025 2691 
Q 1819 2813 1613 2813 
Q 1428 2813 1281 2702 
Q 1134 2591 1072 2394 
Q 978 2094 978 1738 
L 978 0 
L 416 0 
z
" transform="scale(0.015625)"/>
     </defs>
     <use xlink:href="#ArialMT-61"/>
     <use xlink:href="#ArialMT-29" x="55.615234"/>
     <use xlink:href="#ArialMT-20" x="88.916016"/>
     <use xlink:href="#ArialMT-54" x="114.949219"/>
     <use xlink:href="#ArialMT-65" x="164.908203"/>
     <use xlink:href="#ArialMT-72" x="220.523438"/>
     <use xlink:href="#ArialMT-72" x="253.824219"/>
     <use xlink:href="#ArialMT-61" x="287.125"/>
    </g>
   </g>
   <g id="legend_1">
    <g id="patch_7">
     <path d="M 297.144375 109.5 
L 618.784375 109.5 
Q 623.184375 109.5 623.184375 105.1 
L 623.184375 11.6 
Q 623.184375 7.2 618.784375 7.2 
L 297.144375 7.2 
Q 292.744375 7.2 292.744375 11.6 
L 292.744375 105.1 
Q 292.744375 109.5 297.144375 109.5 
z
" style="fill: #eaeaf2; opacity: 0.8; stroke: #cccccc; stroke-linejoin: miter"/>
    </g>
    <g id="line2d_15">
     <path d="M 301.544375 24.36 
L 323.544375 24.36 
L 345.544375 24.36 
" style="fill: none; stroke: #4c72b0; stroke-width: 1.5; stroke-linecap: round"/>
    </g>
    <g id="text_7">
     <!-- Arctic Circle (66.5000$^\circ$N) -->
     <g style="fill: #262626" transform="translate(363.144375 32.06)scale(0.22 -0.22)">
      <defs>
       <path id="ArialMT-41" d="M -9 0 
L 1750 4581 
L 2403 4581 
L 4278 0 
L 3588 0 
L 3053 1388 
L 1138 1388 
L 634 0 
L -9 0 
z
M 1313 1881 
L 2866 1881 
L 2388 3150 
Q 2169 3728 2063 4100 
Q 1975 3659 1816 3225 
L 1313 1881 
z
" transform="scale(0.015625)"/>
       <path id="ArialMT-74" d="M 1650 503 
L 1731 6 
Q 1494 -44 1306 -44 
Q 1000 -44 831 53 
Q 663 150 594 308 
Q 525 466 525 972 
L 525 2881 
L 113 2881 
L 113 3319 
L 525 3319 
L 525 4141 
L 1084 4478 
L 1084 3319 
L 1650 3319 
L 1650 2881 
L 1084 2881 
L 1084 941 
Q 1084 700 1114 631 
Q 1144 563 1211 522 
Q 1278 481 1403 481 
Q 1497 481 1650 503 
z
" transform="scale(0.015625)"/>
       <path id="ArialMT-43" d="M 3763 1606 
L 4369 1453 
Q 4178 706 3683 314 
Q 3188 -78 2472 -78 
Q 1731 -78 1267 223 
Q 803 525 561 1097 
Q 319 1669 319 2325 
Q 319 3041 592 3573 
Q 866 4106 1370 4382 
Q 1875 4659 2481 4659 
Q 3169 4659 3637 4309 
Q 4106 3959 4291 3325 
L 3694 3184 
Q 3534 3684 3231 3912 
Q 2928 4141 2469 4141 
Q 1941 4141 1586 3887 
Q 1231 3634 1087 3207 
Q 944 2781 944 2328 
Q 944 1744 1114 1308 
Q 1284 872 1643 656 
Q 2003 441 2422 441 
Q 2931 441 3284 734 
Q 3638 1028 3763 1606 
z
" transform="scale(0.015625)"/>
       <path id="ArialMT-28" d="M 1497 -1347 
Q 1031 -759 709 28 
Q 388 816 388 1659 
Q 388 2403 628 3084 
Q 909 3875 1497 4659 
L 1900 4659 
Q 1522 4009 1400 3731 
Q 1209 3300 1100 2831 
Q 966 2247 966 1656 
Q 966 153 1900 -1347 
L 1497 -1347 
z
" transform="scale(0.015625)"/>
       <path id="ArialMT-36" d="M 3184 3459 
L 2625 3416 
Q 2550 3747 2413 3897 
Q 2184 4138 1850 4138 
Q 1581 4138 1378 3988 
Q 1113 3794 959 3422 
Q 806 3050 800 2363 
Q 1003 2672 1297 2822 
Q 1591 2972 1913 2972 
Q 2475 2972 2870 2558 
Q 3266 2144 3266 1488 
Q 3266 1056 3080 686 
Q 2894 316 2569 119 
Q 2244 -78 1831 -78 
Q 1128 -78 684 439 
Q 241 956 241 2144 
Q 241 3472 731 4075 
Q 1159 4600 1884 4600 
Q 2425 4600 2770 4297 
Q 3116 3994 3184 3459 
z
M 888 1484 
Q 888 1194 1011 928 
Q 1134 663 1356 523 
Q 1578 384 1822 384 
Q 2178 384 2434 671 
Q 2691 959 2691 1453 
Q 2691 1928 2437 2201 
Q 2184 2475 1800 2475 
Q 1419 2475 1153 2201 
Q 888 1928 888 1484 
z
" transform="scale(0.015625)"/>
       <path id="ArialMT-2e" d="M 581 0 
L 581 641 
L 1222 641 
L 1222 0 
L 581 0 
z
" transform="scale(0.015625)"/>
       <path id="ArialMT-35" d="M 266 1200 
L 856 1250 
Q 922 819 1161 601 
Q 1400 384 1738 384 
Q 2144 384 2425 690 
Q 2706 997 2706 1503 
Q 2706 1984 2436 2262 
Q 2166 2541 1728 2541 
Q 1456 2541 1237 2417 
Q 1019 2294 894 2097 
L 366 2166 
L 809 4519 
L 3088 4519 
L 3088 3981 
L 1259 3981 
L 1013 2750 
Q 1425 3038 1878 3038 
Q 2478 3038 2890 2622 
Q 3303 2206 3303 1553 
Q 3303 931 2941 478 
Q 2500 -78 1738 -78 
Q 1113 -78 717 272 
Q 322 622 266 1200 
z
" transform="scale(0.015625)"/>
       <path id="DejaVuSans-2218" d="M 2003 2603 
Q 1753 2603 1581 2429 
Q 1409 2256 1409 2006 
Q 1409 1759 1581 1589 
Q 1753 1419 2003 1419 
Q 2253 1419 2425 1589 
Q 2597 1759 2597 2006 
Q 2597 2253 2423 2428 
Q 2250 2603 2003 2603 
z
M 2003 3006 
Q 2203 3006 2387 2929 
Q 2572 2853 2706 2709 
Q 2850 2569 2922 2390 
Q 2994 2212 2994 2006 
Q 2994 1594 2705 1308 
Q 2416 1022 1997 1022 
Q 1575 1022 1294 1303 
Q 1013 1584 1013 2006 
Q 1013 2425 1300 2715 
Q 1588 3006 2003 3006 
z
" transform="scale(0.015625)"/>
       <path id="ArialMT-4e" d="M 488 0 
L 488 4581 
L 1109 4581 
L 3516 984 
L 3516 4581 
L 4097 4581 
L 4097 0 
L 3475 0 
L 1069 3600 
L 1069 0 
L 488 0 
z
" transform="scale(0.015625)"/>
      </defs>
      <use xlink:href="#ArialMT-41" transform="translate(0 0.203125)"/>
      <use xlink:href="#ArialMT-72" transform="translate(66.699219 0.203125)"/>
      <use xlink:href="#ArialMT-63" transform="translate(100 0.203125)"/>
      <use xlink:href="#ArialMT-74" transform="translate(150 0.203125)"/>
      <use xlink:href="#ArialMT-69" transform="translate(177.783203 0.203125)"/>
      <use xlink:href="#ArialMT-63" transform="translate(200 0.203125)"/>
      <use xlink:href="#ArialMT-20" transform="translate(250 0.203125)"/>
      <use xlink:href="#ArialMT-43" transform="translate(277.783203 0.203125)"/>
      <use xlink:href="#ArialMT-69" transform="translate(350 0.203125)"/>
      <use xlink:href="#ArialMT-72" transform="translate(372.216797 0.203125)"/>
      <use xlink:href="#ArialMT-63" transform="translate(405.517578 0.203125)"/>
      <use xlink:href="#ArialMT-6c" transform="translate(455.517578 0.203125)"/>
      <use xlink:href="#ArialMT-65" transform="translate(477.734375 0.203125)"/>
      <use xlink:href="#ArialMT-20" transform="translate(533.349609 0.203125)"/>
      <use xlink:href="#ArialMT-28" transform="translate(561.132812 0.203125)"/>
      <use xlink:href="#ArialMT-36" transform="translate(594.433594 0.203125)"/>
      <use xlink:href="#ArialMT-36" transform="translate(650.048828 0.203125)"/>
      <use xlink:href="#ArialMT-2e" transform="translate(705.664062 0.203125)"/>
      <use xlink:href="#ArialMT-35" transform="translate(733.447266 0.203125)"/>
      <use xlink:href="#ArialMT-30" transform="translate(789.0625 0.203125)"/>
      <use xlink:href="#ArialMT-30" transform="translate(844.677734 0.203125)"/>
      <use xlink:href="#ArialMT-30" transform="translate(900.292969 0.203125)"/>
      <use xlink:href="#DejaVuSans-2218" transform="translate(970.50293 38.484375)scale(0.7)"/>
      <use xlink:href="#ArialMT-4e" transform="translate(1030.693359 0.203125)"/>
      <use xlink:href="#ArialMT-29" transform="translate(1102.910156 0.203125)"/>
     </g>
    </g>
    <g id="line2d_16">
     <path d="M 301.544375 56.26 
L 323.544375 56.26 
L 345.544375 56.26 
" style="fill: none; stroke: #dd8452; stroke-width: 1.5; stroke-linecap: round"/>
    </g>
    <g id="text_8">
     <!-- Mt. Zermatt  (46.0207$^\circ$N) -->
     <g style="fill: #262626" transform="translate(363.144375 63.96)scale(0.22 -0.22)">
      <defs>
       <path id="ArialMT-4d" d="M 475 0 
L 475 4581 
L 1388 4581 
L 2472 1338 
Q 2622 884 2691 659 
Q 2769 909 2934 1394 
L 4031 4581 
L 4847 4581 
L 4847 0 
L 4263 0 
L 4263 3834 
L 2931 0 
L 2384 0 
L 1059 3900 
L 1059 0 
L 475 0 
z
" transform="scale(0.015625)"/>
       <path id="ArialMT-5a" d="M 128 0 
L 128 563 
L 2475 3497 
Q 2725 3809 2950 4041 
L 394 4041 
L 394 4581 
L 3675 4581 
L 3675 4041 
L 1103 863 
L 825 541 
L 3750 541 
L 3750 0 
L 128 0 
z
" transform="scale(0.015625)"/>
       <path id="ArialMT-34" d="M 2069 0 
L 2069 1097 
L 81 1097 
L 81 1613 
L 2172 4581 
L 2631 4581 
L 2631 1613 
L 3250 1613 
L 3250 1097 
L 2631 1097 
L 2631 0 
L 2069 0 
z
M 2069 1613 
L 2069 3678 
L 634 1613 
L 2069 1613 
z
" transform="scale(0.015625)"/>
       <path id="ArialMT-37" d="M 303 3981 
L 303 4522 
L 3269 4522 
L 3269 4084 
Q 2831 3619 2401 2847 
Q 1972 2075 1738 1259 
Q 1569 684 1522 0 
L 944 0 
Q 953 541 1156 1306 
Q 1359 2072 1739 2783 
Q 2119 3494 2547 3981 
L 303 3981 
z
" transform="scale(0.015625)"/>
      </defs>
      <use xlink:href="#ArialMT-4d" transform="translate(0 0.203125)"/>
      <use xlink:href="#ArialMT-74" transform="translate(83.300781 0.203125)"/>
      <use xlink:href="#ArialMT-2e" transform="translate(111.083984 0.203125)"/>
      <use xlink:href="#ArialMT-20" transform="translate(138.867188 0.203125)"/>
      <use xlink:href="#ArialMT-5a" transform="translate(166.650391 0.203125)"/>
      <use xlink:href="#ArialMT-65" transform="translate(227.734375 0.203125)"/>
      <use xlink:href="#ArialMT-72" transform="translate(283.349609 0.203125)"/>
      <use xlink:href="#ArialMT-6d" transform="translate(316.650391 0.203125)"/>
      <use xlink:href="#ArialMT-61" transform="translate(399.951172 0.203125)"/>
      <use xlink:href="#ArialMT-74" transform="translate(455.566406 0.203125)"/>
      <use xlink:href="#ArialMT-74" transform="translate(483.349609 0.203125)"/>
      <use xlink:href="#ArialMT-20" transform="translate(511.132812 0.203125)"/>
      <use xlink:href="#ArialMT-20" transform="translate(538.916016 0.203125)"/>
      <use xlink:href="#ArialMT-28" transform="translate(566.699219 0.203125)"/>
      <use xlink:href="#ArialMT-34" transform="translate(600 0.203125)"/>
      <use xlink:href="#ArialMT-36" transform="translate(655.615234 0.203125)"/>
      <use xlink:href="#ArialMT-2e" transform="translate(711.230469 0.203125)"/>
      <use xlink:href="#ArialMT-30" transform="translate(739.013672 0.203125)"/>
      <use xlink:href="#ArialMT-32" transform="translate(794.628906 0.203125)"/>
      <use xlink:href="#ArialMT-30" transform="translate(850.244141 0.203125)"/>
      <use xlink:href="#ArialMT-37" transform="translate(905.859375 0.203125)"/>
      <use xlink:href="#DejaVuSans-2218" transform="translate(976.069336 38.484375)scale(0.7)"/>
      <use xlink:href="#ArialMT-4e" transform="translate(1036.259766 0.203125)"/>
      <use xlink:href="#ArialMT-29" transform="translate(1108.476562 0.203125)"/>
     </g>
    </g>
    <g id="line2d_17">
     <path d="M 301.544375 88.16 
L 323.544375 88.16 
L 345.544375 88.16 
" style="fill: none; stroke: #55a868; stroke-width: 1.5; stroke-linecap: round"/>
    </g>
    <g id="text_9">
     <!-- Mt. Everest  (27.9881$^\circ$N) -->
     <g style="fill: #262626" transform="translate(363.144375 95.86)scale(0.22 -0.22)">
      <defs>
       <path id="ArialMT-45" d="M 506 0 
L 506 4581 
L 3819 4581 
L 3819 4041 
L 1113 4041 
L 1113 2638 
L 3647 2638 
L 3647 2100 
L 1113 2100 
L 1113 541 
L 3925 541 
L 3925 0 
L 506 0 
z
" transform="scale(0.015625)"/>
       <path id="ArialMT-76" d="M 1344 0 
L 81 3319 
L 675 3319 
L 1388 1331 
Q 1503 1009 1600 663 
Q 1675 925 1809 1294 
L 2547 3319 
L 3125 3319 
L 1869 0 
L 1344 0 
z
" transform="scale(0.015625)"/>
       <path id="ArialMT-73" d="M 197 991 
L 753 1078 
Q 800 744 1014 566 
Q 1228 388 1613 388 
Q 2000 388 2187 545 
Q 2375 703 2375 916 
Q 2375 1106 2209 1216 
Q 2094 1291 1634 1406 
Q 1016 1563 777 1677 
Q 538 1791 414 1992 
Q 291 2194 291 2438 
Q 291 2659 392 2848 
Q 494 3038 669 3163 
Q 800 3259 1026 3326 
Q 1253 3394 1513 3394 
Q 1903 3394 2198 3281 
Q 2494 3169 2634 2976 
Q 2775 2784 2828 2463 
L 2278 2388 
Q 2241 2644 2061 2787 
Q 1881 2931 1553 2931 
Q 1166 2931 1000 2803 
Q 834 2675 834 2503 
Q 834 2394 903 2306 
Q 972 2216 1119 2156 
Q 1203 2125 1616 2013 
Q 2213 1853 2448 1751 
Q 2684 1650 2818 1456 
Q 2953 1263 2953 975 
Q 2953 694 2789 445 
Q 2625 197 2315 61 
Q 2006 -75 1616 -75 
Q 969 -75 630 194 
Q 291 463 197 991 
z
" transform="scale(0.015625)"/>
       <path id="ArialMT-39" d="M 350 1059 
L 891 1109 
Q 959 728 1153 556 
Q 1347 384 1650 384 
Q 1909 384 2104 503 
Q 2300 622 2425 820 
Q 2550 1019 2634 1356 
Q 2719 1694 2719 2044 
Q 2719 2081 2716 2156 
Q 2547 1888 2255 1720 
Q 1963 1553 1622 1553 
Q 1053 1553 659 1965 
Q 266 2378 266 3053 
Q 266 3750 677 4175 
Q 1088 4600 1706 4600 
Q 2153 4600 2523 4359 
Q 2894 4119 3086 3673 
Q 3278 3228 3278 2384 
Q 3278 1506 3087 986 
Q 2897 466 2520 194 
Q 2144 -78 1638 -78 
Q 1100 -78 759 220 
Q 419 519 350 1059 
z
M 2653 3081 
Q 2653 3566 2395 3850 
Q 2138 4134 1775 4134 
Q 1400 4134 1122 3828 
Q 844 3522 844 3034 
Q 844 2597 1108 2323 
Q 1372 2050 1759 2050 
Q 2150 2050 2401 2323 
Q 2653 2597 2653 3081 
z
" transform="scale(0.015625)"/>
       <path id="ArialMT-38" d="M 1131 2484 
Q 781 2613 612 2850 
Q 444 3088 444 3419 
Q 444 3919 803 4259 
Q 1163 4600 1759 4600 
Q 2359 4600 2725 4251 
Q 3091 3903 3091 3403 
Q 3091 3084 2923 2848 
Q 2756 2613 2416 2484 
Q 2838 2347 3058 2040 
Q 3278 1734 3278 1309 
Q 3278 722 2862 322 
Q 2447 -78 1769 -78 
Q 1091 -78 675 323 
Q 259 725 259 1325 
Q 259 1772 486 2073 
Q 713 2375 1131 2484 
z
M 1019 3438 
Q 1019 3113 1228 2906 
Q 1438 2700 1772 2700 
Q 2097 2700 2305 2904 
Q 2513 3109 2513 3406 
Q 2513 3716 2298 3927 
Q 2084 4138 1766 4138 
Q 1444 4138 1231 3931 
Q 1019 3725 1019 3438 
z
M 838 1322 
Q 838 1081 952 856 
Q 1066 631 1291 507 
Q 1516 384 1775 384 
Q 2178 384 2440 643 
Q 2703 903 2703 1303 
Q 2703 1709 2433 1975 
Q 2163 2241 1756 2241 
Q 1359 2241 1098 1978 
Q 838 1716 838 1322 
z
" transform="scale(0.015625)"/>
      </defs>
      <use xlink:href="#ArialMT-4d" transform="translate(0 0.203125)"/>
      <use xlink:href="#ArialMT-74" transform="translate(83.300781 0.203125)"/>
      <use xlink:href="#ArialMT-2e" transform="translate(111.083984 0.203125)"/>
      <use xlink:href="#ArialMT-20" transform="translate(138.867188 0.203125)"/>
      <use xlink:href="#ArialMT-45" transform="translate(166.650391 0.203125)"/>
      <use xlink:href="#ArialMT-76" transform="translate(233.349609 0.203125)"/>
      <use xlink:href="#ArialMT-65" transform="translate(283.349609 0.203125)"/>
      <use xlink:href="#ArialMT-72" transform="translate(338.964844 0.203125)"/>
      <use xlink:href="#ArialMT-65" transform="translate(372.265625 0.203125)"/>
      <use xlink:href="#ArialMT-73" transform="translate(427.880859 0.203125)"/>
      <use xlink:href="#ArialMT-74" transform="translate(477.880859 0.203125)"/>
      <use xlink:href="#ArialMT-20" transform="translate(505.664062 0.203125)"/>
      <use xlink:href="#ArialMT-20" transform="translate(533.447266 0.203125)"/>
      <use xlink:href="#ArialMT-28" transform="translate(561.230469 0.203125)"/>
      <use xlink:href="#ArialMT-32" transform="translate(594.53125 0.203125)"/>
      <use xlink:href="#ArialMT-37" transform="translate(650.146484 0.203125)"/>
      <use xlink:href="#ArialMT-2e" transform="translate(705.761719 0.203125)"/>
      <use xlink:href="#ArialMT-39" transform="translate(733.544922 0.203125)"/>
      <use xlink:href="#ArialMT-38" transform="translate(789.160156 0.203125)"/>
      <use xlink:href="#ArialMT-38" transform="translate(844.775391 0.203125)"/>
      <use xlink:href="#ArialMT-31" transform="translate(900.390625 0.203125)"/>
      <use xlink:href="#DejaVuSans-2218" transform="translate(970.600586 38.484375)scale(0.7)"/>
      <use xlink:href="#ArialMT-4e" transform="translate(1030.791016 0.203125)"/>
      <use xlink:href="#ArialMT-29" transform="translate(1103.007812 0.203125)"/>
     </g>
    </g>
   </g>
  </g>
  <g id="axes_2">
   <g id="patch_8">
    <path d="M 97.696875 561.308738 
L 818.231875 561.308738 
L 818.231875 359.17089 
L 97.696875 359.17089 
z
" style="fill: #eaeaf2"/>
   </g>
   <g id="matplotlib.axis_3">
    <g id="xtick_6">
     <g id="line2d_18">
      <path d="M 219.167369 561.308738 
L 219.167369 359.17089 
" clip-path="url(#p25fb9ba93c)" style="fill: none; stroke: #ffffff; stroke-linecap: round"/>
     </g>
     <g id="text_10">
      <!-- 2004 -->
      <g style="fill: #262626" transform="translate(194.699244 586.555926)scale(0.22 -0.22)">
       <use xlink:href="#ArialMT-32"/>
       <use xlink:href="#ArialMT-30" x="55.615234"/>
       <use xlink:href="#ArialMT-30" x="111.230469"/>
       <use xlink:href="#ArialMT-34" x="166.845703"/>
      </g>
     </g>
    </g>
    <g id="xtick_7">
     <g id="line2d_19">
      <path d="M 345.299844 561.308738 
L 345.299844 359.17089 
" clip-path="url(#p25fb9ba93c)" style="fill: none; stroke: #ffffff; stroke-linecap: round"/>
     </g>
     <g id="text_11">
      <!-- 2008 -->
      <g style="fill: #262626" transform="translate(320.831719 586.555926)scale(0.22 -0.22)">
       <use xlink:href="#ArialMT-32"/>
       <use xlink:href="#ArialMT-30" x="55.615234"/>
       <use xlink:href="#ArialMT-30" x="111.230469"/>
       <use xlink:href="#ArialMT-38" x="166.845703"/>
      </g>
     </g>
    </g>
    <g id="xtick_8">
     <g id="line2d_20">
      <path d="M 471.432319 561.308738 
L 471.432319 359.17089 
" clip-path="url(#p25fb9ba93c)" style="fill: none; stroke: #ffffff; stroke-linecap: round"/>
     </g>
     <g id="text_12">
      <!-- 2012 -->
      <g style="fill: #262626" transform="translate(446.964194 586.555926)scale(0.22 -0.22)">
       <use xlink:href="#ArialMT-32"/>
       <use xlink:href="#ArialMT-30" x="55.615234"/>
       <use xlink:href="#ArialMT-31" x="111.230469"/>
       <use xlink:href="#ArialMT-32" x="166.845703"/>
      </g>
     </g>
    </g>
    <g id="xtick_9">
     <g id="line2d_21">
      <path d="M 597.564794 561.308738 
L 597.564794 359.17089 
" clip-path="url(#p25fb9ba93c)" style="fill: none; stroke: #ffffff; stroke-linecap: round"/>
     </g>
     <g id="text_13">
      <!-- 2016 -->
      <g style="fill: #262626" transform="translate(573.096669 586.555926)scale(0.22 -0.22)">
       <use xlink:href="#ArialMT-32"/>
       <use xlink:href="#ArialMT-30" x="55.615234"/>
       <use xlink:href="#ArialMT-31" x="111.230469"/>
       <use xlink:href="#ArialMT-36" x="166.845703"/>
      </g>
     </g>
    </g>
    <g id="xtick_10">
     <g id="line2d_22">
      <path d="M 723.697269 561.308738 
L 723.697269 359.17089 
" clip-path="url(#p25fb9ba93c)" style="fill: none; stroke: #ffffff; stroke-linecap: round"/>
     </g>
     <g id="text_14">
      <!-- 2020 -->
      <g style="fill: #262626" transform="translate(699.229144 586.555926)scale(0.22 -0.22)">
       <use xlink:href="#ArialMT-32"/>
       <use xlink:href="#ArialMT-30" x="55.615234"/>
       <use xlink:href="#ArialMT-32" x="111.230469"/>
       <use xlink:href="#ArialMT-30" x="166.845703"/>
      </g>
     </g>
    </g>
   </g>
   <g id="matplotlib.axis_4">
    <g id="ytick_5">
     <g id="line2d_23">
      <path d="M 97.696875 528.601731 
L 818.231875 528.601731 
" clip-path="url(#p25fb9ba93c)" style="fill: none; stroke: #ffffff; stroke-linecap: round"/>
     </g>
     <g id="text_15">
      <!-- 12:15 -->
      <g style="fill: #262626" transform="translate(33.14875 536.475325)scale(0.22 -0.22)">
       <use xlink:href="#ArialMT-31"/>
       <use xlink:href="#ArialMT-32" x="55.615234"/>
       <use xlink:href="#ArialMT-3a" x="111.230469"/>
       <use xlink:href="#ArialMT-31" x="139.013672"/>
       <use xlink:href="#ArialMT-35" x="194.628906"/>
      </g>
     </g>
    </g>
    <g id="ytick_6">
     <g id="line2d_24">
      <path d="M 97.696875 493.128523 
L 818.231875 493.128523 
" clip-path="url(#p25fb9ba93c)" style="fill: none; stroke: #ffffff; stroke-linecap: round"/>
     </g>
     <g id="text_16">
      <!-- 12:30 -->
      <g style="fill: #262626" transform="translate(33.14875 501.002117)scale(0.22 -0.22)">
       <use xlink:href="#ArialMT-31"/>
       <use xlink:href="#ArialMT-32" x="55.615234"/>
       <use xlink:href="#ArialMT-3a" x="111.230469"/>
       <use xlink:href="#ArialMT-33" x="139.013672"/>
       <use xlink:href="#ArialMT-30" x="194.628906"/>
      </g>
     </g>
    </g>
    <g id="ytick_7">
     <g id="line2d_25">
      <path d="M 97.696875 457.655316 
L 818.231875 457.655316 
" clip-path="url(#p25fb9ba93c)" style="fill: none; stroke: #ffffff; stroke-linecap: round"/>
     </g>
     <g id="text_17">
      <!-- 12:45 -->
      <g style="fill: #262626" transform="translate(33.14875 465.52891)scale(0.22 -0.22)">
       <use xlink:href="#ArialMT-31"/>
       <use xlink:href="#ArialMT-32" x="55.615234"/>
       <use xlink:href="#ArialMT-3a" x="111.230469"/>
       <use xlink:href="#ArialMT-34" x="139.013672"/>
       <use xlink:href="#ArialMT-35" x="194.628906"/>
      </g>
     </g>
    </g>
    <g id="ytick_8">
     <g id="line2d_26">
      <path d="M 97.696875 422.182109 
L 818.231875 422.182109 
" clip-path="url(#p25fb9ba93c)" style="fill: none; stroke: #ffffff; stroke-linecap: round"/>
     </g>
     <g id="text_18">
      <!-- 13:00 -->
      <g style="fill: #262626" transform="translate(33.14875 430.055703)scale(0.22 -0.22)">
       <use xlink:href="#ArialMT-31"/>
       <use xlink:href="#ArialMT-33" x="55.615234"/>
       <use xlink:href="#ArialMT-3a" x="111.230469"/>
       <use xlink:href="#ArialMT-30" x="139.013672"/>
       <use xlink:href="#ArialMT-30" x="194.628906"/>
      </g>
     </g>
    </g>
    <g id="ytick_9">
     <g id="line2d_27">
      <path d="M 97.696875 386.708901 
L 818.231875 386.708901 
" clip-path="url(#p25fb9ba93c)" style="fill: none; stroke: #ffffff; stroke-linecap: round"/>
     </g>
     <g id="text_19">
      <!-- 13:15 -->
      <g style="fill: #262626" transform="translate(33.14875 394.582495)scale(0.22 -0.22)">
       <use xlink:href="#ArialMT-31"/>
       <use xlink:href="#ArialMT-33" x="55.615234"/>
       <use xlink:href="#ArialMT-3a" x="111.230469"/>
       <use xlink:href="#ArialMT-31" x="139.013672"/>
       <use xlink:href="#ArialMT-35" x="194.628906"/>
      </g>
     </g>
    </g>
    <g id="text_20">
     <!-- Local Time -->
     <g style="fill: #262626" transform="translate(24.37875 518.263564)rotate(-90)scale(0.24 -0.24)">
      <use xlink:href="#ArialMT-4c"/>
      <use xlink:href="#ArialMT-6f" x="55.615234"/>
      <use xlink:href="#ArialMT-63" x="111.230469"/>
      <use xlink:href="#ArialMT-61" x="161.230469"/>
      <use xlink:href="#ArialMT-6c" x="216.845703"/>
      <use xlink:href="#ArialMT-20" x="239.0625"/>
      <use xlink:href="#ArialMT-54" x="265.095703"/>
      <use xlink:href="#ArialMT-69" x="322.429688"/>
      <use xlink:href="#ArialMT-6d" x="344.646484"/>
      <use xlink:href="#ArialMT-65" x="427.947266"/>
     </g>
    </g>
   </g>
   <g id="line2d_28">
    <path d="M 761.856443 561.308738 
L 761.856443 359.17089 
" clip-path="url(#p25fb9ba93c)" style="fill: none; stroke-dasharray: 5.55,2.4; stroke-dashoffset: 0; stroke: #1a1a1a; stroke-width: 1.5"/>
   </g>
   <g id="line2d_29">
    <path d="M 174.360556 544.416291 
L 177.036878 544.004859 
L 179.626867 549.772749 
L 182.303189 541.149507 
L 184.893179 527.795996 
L 187.569501 533.515493 
L 190.245823 533.648875 
L 192.663146 520.911303 
L 195.339468 523.301675 
L 197.929458 531.534996 
L 200.60578 543.17634 
L 203.195769 546.831586 
L 205.872091 540.478924 
L 208.548413 548.375469 
L 211.138403 549.56689 
L 213.814725 545.107582 
L 216.404714 527.963436 
L 219.081036 536.15191 
L 221.757358 531.263252 
L 224.261015 522.176293 
L 226.937337 519.325454 
L 229.527326 524.56384 
L 232.203648 534.655152 
L 234.793638 545.005643 
L 237.46996 538.985117 
L 240.146282 542.230028 
L 242.736271 551.859636 
L 245.412593 527.661347 
L 248.002583 528.053162 
L 250.678905 531.136327 
L 253.355227 530.492353 
L 255.77255 520.379645 
L 258.448872 523.209948 
L 261.038862 527.064313 
L 263.715184 543.205881 
L 266.305173 542.138734 
L 268.981495 546.403913 
L 271.657817 547.785981 
L 274.247807 550.818579 
L 276.924129 541.749171 
L 279.514118 531.54248 
L 282.19044 535.827316 
L 284.866762 536.387276 
L 287.284086 521.415891 
L 289.960408 521.559125 
L 292.550397 524.441405 
L 295.226719 541.425824 
L 297.816708 543.269794 
L 300.493031 542.363773 
L 303.169353 543.391881 
L 305.759342 545.262547 
L 308.435664 533.851796 
L 311.025653 522.268185 
L 313.701976 529.521448 
L 316.378298 528.266649 
L 318.795621 515.497348 
L 321.471943 516.382599 
L 324.061933 521.555306 
L 326.738255 533.314509 
L 329.328244 539.29543 
L 332.004566 538.847953 
L 334.680888 538.673917 
L 337.270878 547.180574 
L 342.537189 522.650127 
L 345.213511 528.379548 
L 347.889833 529.533215 
L 350.39349 520.086069 
L 353.069812 516.349914 
L 355.659801 519.559754 
L 358.336123 533.485601 
L 360.926112 538.554105 
L 363.602435 535.911224 
L 366.278757 540.019273 
L 368.868746 545.438949 
L 371.545068 530.912546 
L 374.135057 514.932658 
L 376.81138 523.658705 
L 379.487702 515.423279 
L 381.905025 502.315811 
L 384.581347 498.516073 
L 387.171336 505.654273 
L 389.847659 519.187957 
L 392.437648 528.644512 
L 395.11397 528.650049 
L 397.790292 534.236755 
L 400.380281 536.393512 
L 403.056604 526.080314 
L 405.646593 509.457246 
L 408.322915 523.862577 
L 410.999237 518.523587 
L 413.41656 507.379665 
L 416.092883 510.058349 
L 418.682872 519.425315 
L 421.359194 529.793521 
L 423.949183 538.32263 
L 426.625505 536.312484 
L 429.301828 541.251839 
L 431.891817 542.373404 
L 434.568139 536.715877 
L 437.158128 521.418428 
L 439.83445 526.662529 
L 442.510773 523.860101 
L 444.928096 513.127016 
L 447.604418 516.354058 
L 450.194407 517.555635 
L 452.87073 530.172361 
L 455.460719 538.428691 
L 458.137041 539.888242 
L 460.813363 544.234618 
L 463.403352 544.893521 
L 466.079675 536.417571 
L 468.669664 519.550783 
L 471.345986 528.311862 
L 474.022308 526.508377 
L 476.525964 517.841715 
L 479.202287 515.313799 
L 481.792276 521.990411 
L 484.468598 535.030893 
L 487.058587 538.308241 
L 489.734909 536.279301 
L 492.411232 542.967682 
L 495.001221 544.1648 
L 497.677543 540.508628 
L 500.267532 522.260743 
L 502.943854 527.509791 
L 505.620177 526.803111 
L 508.0375 512.466649 
L 510.713822 514.748069 
L 513.303811 521.068299 
L 515.980133 530.101618 
L 518.570123 534.904547 
L 521.246445 534.558561 
L 523.922767 537.34403 
L 526.512756 548.96745 
L 529.189078 536.350515 
L 531.779068 522.134691 
L 534.45539 530.724554 
L 537.131712 527.087264 
L 539.549035 516.413368 
L 542.225358 514.717437 
L 544.815347 518.259673 
L 547.491669 533.095263 
L 550.081658 536.479112 
L 552.75798 532.442502 
L 555.434303 541.83286 
L 558.024292 545.112714 
L 560.700614 533.375989 
L 563.290603 524.124376 
L 565.966925 529.07609 
L 568.643248 523.036606 
L 571.060571 512.045334 
L 573.736893 512.70921 
L 576.326882 517.937648 
L 579.003204 532.413409 
L 581.593194 537.77503 
L 584.269516 537.258503 
L 586.945838 540.44898 
L 589.535827 545.979412 
L 592.212149 532.437525 
L 594.802139 520.98788 
L 597.478461 528.640065 
L 600.154783 528.799146 
L 602.658439 521.012383 
L 605.334761 516.389031 
L 607.924751 519.514414 
L 610.601073 534.27662 
L 613.191062 537.88882 
L 615.867384 537.242976 
L 618.543706 540.358314 
L 621.133696 544.017757 
L 623.810018 535.185484 
L 626.400007 523.194881 
L 629.076329 527.725453 
L 631.752651 529.405836 
L 634.169975 516.630761 
L 636.846297 517.48197 
L 639.436286 517.896108 
L 642.112608 532.25339 
L 644.702598 536.823128 
L 647.37892 535.701311 
L 650.055242 538.661212 
L 652.645231 545.704912 
L 655.321553 530.892542 
L 657.911543 523.83764 
L 660.587865 532.499563 
L 663.264187 525.742036 
L 665.68151 510.893432 
L 668.357832 513.114478 
L 670.947822 517.510321 
L 673.624144 528.920137 
L 676.214133 535.97637 
L 678.890455 532.58159 
L 681.566777 540.893402 
L 684.156767 543.026138 
L 686.833089 537.555764 
L 689.423078 519.919411 
L 692.0994 527.444508 
L 694.775722 526.50633 
L 697.193046 514.695066 
L 699.869368 517.319514 
L 702.459357 522.520779 
L 705.135679 534.354915 
L 707.725668 537.845928 
L 710.401991 529.67547 
L 713.078313 536.90152 
L 715.668302 546.230003 
L 718.344624 533.307405 
L 720.934613 518.236057 
L 723.610936 528.962964 
L 726.287258 524.451709 
L 728.790914 515.06036 
L 731.467236 515.159503 
L 734.057225 519.086273 
L 736.733548 534.772176 
L 739.323537 538.307224 
L 741.999859 537.79646 
L 744.676181 547.561039 
L 747.26617 552.120654 
L 752.532482 523.585186 
L 755.208804 528.570502 
L 757.885126 525.368066 
L 760.30245 514.625193 
L 762.978772 509.507229 
L 768.245083 534.085243 
L 770.835072 538.618987 
L 773.511395 537.287986 
L 776.187717 538.530889 
L 778.777706 543.266969 
L 781.454028 536.993042 
L 784.044017 519.387299 
L 786.72034 529.405596 
L 789.396662 522.484338 
L 791.813985 512.64174 
L 794.490307 512.405606 
L 797.080296 518.729121 
L 799.756619 528.31113 
L 802.346608 528.884469 
L 805.02293 529.216671 
L 807.699252 532.936062 
L 810.289241 540.985211 
L 812.965564 522.333175 
L 815.555553 508.280548 
L 818.231875 512.273087 
L 818.231875 512.273087 
" clip-path="url(#p25fb9ba93c)" style="fill: none; stroke: #4c72b0; stroke-width: 1.5; stroke-linecap: round"/>
   </g>
   <g id="line2d_30">
    <path d="M 174.360556 426.151967 
L 177.036878 425.72693 
L 179.626867 426.281933 
L 182.303189 440.825191 
L 184.893179 456.721859 
L 187.569501 448.510164 
L 190.245823 439.018 
L 192.663146 436.165277 
L 195.339468 441.113196 
L 197.929458 438.462468 
L 200.60578 432.507189 
L 203.195769 432.104102 
L 205.872091 432.264546 
L 208.548413 431.197144 
L 211.138403 434.767023 
L 213.814725 446.405309 
L 216.404714 453.022872 
L 219.081036 445.112037 
L 221.757358 441.440925 
L 224.261015 440.147307 
L 226.937337 444.118479 
L 229.527326 434.066067 
L 232.203648 430.403976 
L 234.793638 428.558988 
L 237.46996 429.827073 
L 240.146282 428.194231 
L 242.736271 427.638701 
L 245.412593 443.829969 
L 248.002583 453.639224 
L 253.355227 436.097345 
L 255.77255 434.612239 
L 258.448872 444.077639 
L 261.038862 439.107786 
L 263.715184 432.598017 
L 266.305173 432.603537 
L 268.981495 431.41334 
L 271.657817 432.551771 
L 274.247807 433.097299 
L 276.924129 448.088512 
L 279.514118 459.425515 
L 282.19044 455.479201 
L 284.866762 444.221742 
L 287.284086 448.702025 
L 289.960408 445.410205 
L 292.550397 435.524967 
L 295.226719 426.083172 
L 297.816708 429.027137 
L 300.493031 425.379522 
L 303.169353 424.199536 
L 305.759342 424.323508 
L 308.435664 439.875798 
L 311.025653 451.590795 
L 316.378298 438.899339 
L 318.795621 440.183522 
L 321.471943 435.499833 
L 324.061933 430.049631 
L 326.738255 424.123114 
L 329.328244 422.660596 
L 332.004566 422.222517 
L 334.680888 424.829064 
L 337.270878 426.194615 
L 339.9472 442.442431 
L 342.537189 456.001532 
L 345.213511 450.988244 
L 347.889833 433.024457 
L 350.39349 434.892852 
L 353.069812 441.13799 
L 355.659801 427.705781 
L 358.336123 428.476472 
L 360.926112 423.25028 
L 363.602435 422.034713 
L 366.278757 420.675842 
L 368.868746 424.061386 
L 371.545068 434.799797 
L 374.135057 449.244088 
L 376.81138 439.481376 
L 379.487702 423.846789 
L 384.581347 426.270066 
L 387.171336 417.495578 
L 389.847659 414.827231 
L 392.437648 412.483186 
L 395.11397 413.206597 
L 397.790292 416.227775 
L 400.380281 420.935031 
L 403.056604 433.281211 
L 405.646593 436.093936 
L 408.322915 430.342583 
L 410.999237 418.441226 
L 413.41656 418.311646 
L 416.092883 431.249119 
L 418.682872 425.005013 
L 421.359194 421.002002 
L 423.949183 417.649006 
L 429.301828 422.531889 
L 431.891817 424.692901 
L 434.568139 440.35158 
L 437.158128 447.038059 
L 439.83445 434.988477 
L 442.510773 427.319416 
L 444.928096 424.096615 
L 447.604418 432.6233 
L 450.194407 427.500949 
L 452.87073 424.154812 
L 455.460719 424.616647 
L 458.137041 423.375891 
L 460.813363 425.167168 
L 463.403352 428.200035 
L 466.079675 441.451938 
L 468.669664 448.969109 
L 471.345986 439.971076 
L 474.022308 432.354178 
L 476.525964 432.582273 
L 479.202287 433.764026 
L 481.792276 427.175166 
L 484.468598 422.584957 
L 487.058587 422.344255 
L 489.734909 423.385362 
L 492.411232 421.174981 
L 495.001221 424.997213 
L 497.677543 442.270896 
L 500.267532 444.122633 
L 502.943854 430.634986 
L 505.620177 430.614656 
L 508.0375 430.271625 
L 510.713822 439.205313 
L 513.303811 427.907883 
L 515.980133 423.067539 
L 518.570123 422.165686 
L 521.246445 421.900807 
L 523.922767 423.183857 
L 526.512756 425.931369 
L 529.189078 437.841663 
L 531.779068 452.438427 
L 534.45539 441.114114 
L 537.131712 432.640526 
L 539.549035 426.286123 
L 542.225358 432.690817 
L 544.815347 424.012213 
L 550.081658 423.56398 
L 552.75798 420.351837 
L 555.434303 422.210789 
L 558.024292 427.501509 
L 560.700614 443.290773 
L 563.290603 451.586082 
L 565.966925 439.954833 
L 568.643248 437.104327 
L 571.060571 436.353005 
L 573.736893 434.675359 
L 576.326882 427.360934 
L 579.003204 421.584072 
L 581.593194 422.283482 
L 584.269516 421.434264 
L 586.945838 421.122695 
L 589.535827 425.044136 
L 592.212149 439.103667 
L 594.802139 440.460638 
L 597.478461 428.612193 
L 600.154783 425.801231 
L 602.658439 432.445677 
L 605.334761 440.150046 
L 607.924751 428.802973 
L 610.601073 423.090102 
L 613.191062 423.093682 
L 615.867384 422.20209 
L 618.543706 424.500311 
L 621.133696 427.457462 
L 623.810018 443.09536 
L 626.400007 443.743089 
L 629.076329 436.074599 
L 631.752651 428.7793 
L 634.169975 429.213986 
L 636.846297 436.979373 
L 639.436286 428.784501 
L 642.112608 424.138748 
L 644.702598 423.554457 
L 647.37892 422.119698 
L 650.055242 424.604192 
L 652.645231 425.485162 
L 655.321553 440.621863 
L 657.911543 450.740565 
L 660.587865 444.33393 
L 663.264187 424.043526 
L 665.68151 427.620896 
L 668.357832 432.105231 
L 670.947822 424.345772 
L 673.624144 420.63629 
L 676.214133 422.125065 
L 678.890455 421.186661 
L 681.566777 422.423267 
L 684.156767 425.521106 
L 686.833089 437.272461 
L 689.423078 450.790862 
L 692.0994 451.19746 
L 694.775722 442.662698 
L 697.193046 429.598433 
L 699.869368 435.431089 
L 702.459357 427.010831 
L 705.135679 425.188126 
L 707.725668 421.463533 
L 710.401991 422.455112 
L 713.078313 422.699432 
L 715.668302 426.051253 
L 720.934613 447.850277 
L 723.610936 442.994172 
L 726.287258 429.730154 
L 728.790914 435.599696 
L 731.467236 435.816864 
L 734.057225 426.337986 
L 736.733548 423.471486 
L 739.323537 421.289406 
L 741.999859 421.890962 
L 744.676181 421.825066 
L 747.26617 426.249123 
L 749.942493 438.656043 
L 752.532482 446.359026 
L 755.208804 431.543201 
L 757.885126 429.402706 
L 760.30245 431.841333 
L 762.978772 438.616446 
L 765.568761 424.798341 
L 768.245083 423.058334 
L 770.835072 423.802532 
L 773.511395 421.702447 
L 776.187717 424.802257 
L 778.777706 427.313803 
L 781.454028 442.741303 
L 784.044017 450.36866 
L 786.72034 447.269443 
L 789.396662 437.217696 
L 791.813985 430.054929 
L 794.490307 433.310928 
L 797.080296 420.573758 
L 799.756619 419.811695 
L 802.346608 417.08771 
L 805.02293 414.597736 
L 807.699252 413.231613 
L 810.289241 413.128727 
L 812.965564 427.167174 
L 815.555553 434.226658 
L 818.231875 417.891978 
L 818.231875 417.891978 
" clip-path="url(#p25fb9ba93c)" style="fill: none; stroke: #dd8452; stroke-width: 1.5; stroke-linecap: round"/>
   </g>
   <g id="line2d_31">
    <path d="M 174.360556 383.078795 
L 177.036878 385.416109 
L 179.626867 386.938553 
L 182.303189 387.271671 
L 184.893179 390.732284 
L 187.569501 394.101245 
L 190.245823 392.800086 
L 192.663146 393.917092 
L 195.339468 390.360917 
L 197.929458 390.211011 
L 200.60578 388.725187 
L 203.195769 388.995936 
L 205.872091 390.564941 
L 208.548413 389.186587 
L 211.138403 389.64073 
L 213.814725 389.966177 
L 216.404714 391.163286 
L 219.081036 395.549059 
L 221.757358 395.019088 
L 224.261015 392.624427 
L 226.937337 387.604756 
L 232.203648 387.630415 
L 234.793638 387.056845 
L 237.46996 385.653459 
L 240.146282 386.111272 
L 242.736271 385.300152 
L 245.412593 386.429553 
L 248.002583 389.367928 
L 250.678905 394.8615 
L 253.355227 394.637995 
L 255.77255 395.715624 
L 258.448872 390.058394 
L 261.038862 389.374172 
L 263.715184 391.54212 
L 266.305173 389.965484 
L 268.981495 390.789871 
L 271.657817 390.007755 
L 274.247807 391.399783 
L 276.924129 391.682737 
L 279.514118 391.841684 
L 282.19044 395.201402 
L 284.866762 395.633888 
L 287.284086 394.302977 
L 289.960408 388.416656 
L 292.550397 387.069111 
L 297.816708 386.257032 
L 300.493031 383.910045 
L 305.759342 382.673055 
L 308.435664 383.277926 
L 311.025653 385.26161 
L 313.701976 390.927233 
L 316.378298 390.444101 
L 318.795621 385.048358 
L 321.471943 383.048666 
L 324.061933 381.280072 
L 326.738255 382.151475 
L 329.328244 380.869259 
L 332.004566 382.28107 
L 334.680888 383.057415 
L 337.270878 382.781611 
L 339.9472 383.774016 
L 345.213511 388.653197 
L 347.889833 392.150375 
L 350.39349 385.801792 
L 353.069812 382.766993 
L 355.659801 382.275201 
L 358.336123 381.026863 
L 360.926112 380.688063 
L 363.602435 379.781102 
L 366.278757 379.783042 
L 368.868746 378.729671 
L 371.545068 378.785812 
L 374.135057 378.093505 
L 376.81138 381.980285 
L 379.487702 380.31737 
L 381.905025 373.788734 
L 384.581347 372.151759 
L 387.171336 369.920226 
L 389.847659 370.409336 
L 392.437648 371.5421 
L 395.11397 372.840676 
L 397.790292 372.721657 
L 400.380281 374.239753 
L 403.056604 376.107238 
L 405.646593 377.123706 
L 408.322915 381.590206 
L 410.999237 379.830367 
L 413.41656 379.222988 
L 416.092883 376.587304 
L 418.682872 375.879841 
L 421.359194 377.757409 
L 423.949183 379.4335 
L 426.625505 378.376421 
L 429.301828 380.398115 
L 431.891817 379.400669 
L 434.568139 382.00204 
L 437.158128 383.345274 
L 442.510773 387.627746 
L 447.604418 381.381256 
L 450.194407 380.300476 
L 455.460719 382.549296 
L 458.137041 381.437387 
L 466.079675 383.626338 
L 468.669664 385.952921 
L 471.345986 388.722191 
L 474.022308 390.209615 
L 476.525964 386.429507 
L 479.202287 381.994915 
L 484.468598 381.637111 
L 492.411232 381.147498 
L 495.001221 382.201062 
L 497.677543 383.726669 
L 500.267532 384.947025 
L 502.943854 388.645619 
L 505.620177 388.074506 
L 508.0375 384.698163 
L 510.713822 381.479819 
L 515.980133 380.713115 
L 518.570123 380.535467 
L 521.246445 381.019994 
L 523.922767 380.93394 
L 526.512756 381.449536 
L 529.189078 382.120657 
L 531.779068 383.460483 
L 534.45539 388.778621 
L 537.131712 384.861203 
L 539.549035 382.917009 
L 544.815347 379.922977 
L 547.491669 379.873331 
L 550.081658 380.356092 
L 552.75798 381.381652 
L 555.434303 381.679702 
L 558.024292 381.019832 
L 560.700614 381.962383 
L 563.290603 383.811887 
L 565.966925 386.046648 
L 568.643248 385.298227 
L 571.060571 383.307255 
L 573.736893 380.107989 
L 576.326882 378.857595 
L 579.003204 379.245282 
L 581.593194 380.043594 
L 584.269516 379.450892 
L 586.945838 381.392791 
L 589.535827 382.453922 
L 592.212149 383.694632 
L 594.802139 385.280914 
L 597.478461 388.672786 
L 600.154783 385.933192 
L 602.658439 382.870554 
L 605.334761 380.063391 
L 607.924751 382.622549 
L 610.601073 380.666626 
L 613.191062 380.380664 
L 615.867384 381.598127 
L 618.543706 381.495345 
L 621.133696 383.2705 
L 623.810018 383.861835 
L 626.400007 384.923545 
L 629.076329 387.907873 
L 631.752651 387.070822 
L 634.169975 383.678135 
L 636.846297 381.788369 
L 639.436286 381.278814 
L 642.112608 381.60622 
L 644.702598 380.853326 
L 647.37892 382.135388 
L 650.055242 382.27241 
L 652.645231 381.758686 
L 655.321553 381.649662 
L 657.911543 384.88246 
L 660.587865 386.350548 
L 663.264187 386.030677 
L 665.68151 382.028014 
L 668.357832 380.007663 
L 673.624144 380.636043 
L 676.214133 379.752697 
L 678.890455 381.751354 
L 681.566777 380.285371 
L 684.156767 382.76914 
L 686.833089 383.257202 
L 689.423078 384.183892 
L 692.0994 386.064948 
L 694.775722 386.516637 
L 697.193046 384.05524 
L 699.869368 380.454807 
L 702.459357 382.034546 
L 707.725668 380.99952 
L 710.401991 380.84901 
L 713.078313 381.872424 
L 715.668302 381.455448 
L 718.344624 383.749711 
L 720.934613 384.811484 
L 723.610936 389.238893 
L 726.287258 387.869138 
L 728.790914 383.10189 
L 731.467236 382.628112 
L 734.057225 381.112678 
L 736.733548 381.218861 
L 739.323537 380.552461 
L 741.999859 381.050962 
L 744.676181 387.005417 
L 747.26617 381.374354 
L 749.942493 381.674605 
L 752.532482 383.016603 
L 755.208804 387.387976 
L 757.885126 384.961522 
L 760.30245 383.623994 
L 762.978772 381.88394 
L 765.568761 380.422881 
L 768.245083 382.427349 
L 770.835072 381.01062 
L 773.511395 381.5517 
L 776.187717 381.277127 
L 778.777706 383.710418 
L 781.454028 381.595339 
L 784.044017 383.621683 
L 786.72034 386.756437 
L 789.396662 385.622903 
L 791.813985 379.966028 
L 794.490307 378.666579 
L 797.080296 378.049549 
L 799.756619 375.65912 
L 805.02293 373.037899 
L 807.699252 370.928652 
L 810.289241 370.394485 
L 812.965564 368.958207 
L 815.555553 369.233092 
L 818.231875 368.358974 
L 818.231875 368.358974 
" clip-path="url(#p25fb9ba93c)" style="fill: none; stroke: #55a868; stroke-width: 1.5; stroke-linecap: round"/>
   </g>
   <g id="patch_9">
    <path d="M 97.696875 561.308738 
L 97.696875 359.17089 
" style="fill: none; stroke: #ffffff; stroke-width: 1.25; stroke-linejoin: miter; stroke-linecap: square"/>
   </g>
   <g id="patch_10">
    <path d="M 818.231875 561.308738 
L 818.231875 359.17089 
" style="fill: none; stroke: #ffffff; stroke-width: 1.25; stroke-linejoin: miter; stroke-linecap: square"/>
   </g>
   <g id="patch_11">
    <path d="M 97.696875 561.308738 
L 818.231875 561.308738 
" style="fill: none; stroke: #ffffff; stroke-width: 1.25; stroke-linejoin: miter; stroke-linecap: square"/>
   </g>
   <g id="patch_12">
    <path d="M 97.696875 359.17089 
L 818.231875 359.17089 
" style="fill: none; stroke: #ffffff; stroke-width: 1.25; stroke-linejoin: miter; stroke-linecap: square"/>
   </g>
   <g id="text_21">
    <!-- b) Aqua -->
    <g style="fill: #262626" transform="translate(11.232675 359.17089)scale(0.24 -0.24)">
     <defs>
      <path id="ArialMT-62" d="M 941 0 
L 419 0 
L 419 4581 
L 981 4581 
L 981 2947 
Q 1338 3394 1891 3394 
Q 2197 3394 2470 3270 
Q 2744 3147 2920 2923 
Q 3097 2700 3197 2384 
Q 3297 2069 3297 1709 
Q 3297 856 2875 390 
Q 2453 -75 1863 -75 
Q 1275 -75 941 416 
L 941 0 
z
M 934 1684 
Q 934 1088 1097 822 
Q 1363 388 1816 388 
Q 2184 388 2453 708 
Q 2722 1028 2722 1663 
Q 2722 2313 2464 2622 
Q 2206 2931 1841 2931 
Q 1472 2931 1203 2611 
Q 934 2291 934 1684 
z
" transform="scale(0.015625)"/>
      <path id="ArialMT-71" d="M 2538 -1272 
L 2538 353 
Q 2406 169 2170 47 
Q 1934 -75 1669 -75 
Q 1078 -75 651 397 
Q 225 869 225 1691 
Q 225 2191 398 2587 
Q 572 2984 901 3189 
Q 1231 3394 1625 3394 
Q 2241 3394 2594 2875 
L 2594 3319 
L 3100 3319 
L 3100 -1272 
L 2538 -1272 
z
M 803 1669 
Q 803 1028 1072 708 
Q 1341 388 1716 388 
Q 2075 388 2334 692 
Q 2594 997 2594 1619 
Q 2594 2281 2320 2615 
Q 2047 2950 1678 2950 
Q 1313 2950 1058 2639 
Q 803 2328 803 1669 
z
" transform="scale(0.015625)"/>
      <path id="ArialMT-75" d="M 2597 0 
L 2597 488 
Q 2209 -75 1544 -75 
Q 1250 -75 995 37 
Q 741 150 617 320 
Q 494 491 444 738 
Q 409 903 409 1263 
L 409 3319 
L 972 3319 
L 972 1478 
Q 972 1038 1006 884 
Q 1059 663 1231 536 
Q 1403 409 1656 409 
Q 1909 409 2131 539 
Q 2353 669 2445 892 
Q 2538 1116 2538 1541 
L 2538 3319 
L 3100 3319 
L 3100 0 
L 2597 0 
z
" transform="scale(0.015625)"/>
     </defs>
     <use xlink:href="#ArialMT-62"/>
     <use xlink:href="#ArialMT-29" x="55.615234"/>
     <use xlink:href="#ArialMT-20" x="88.916016"/>
     <use xlink:href="#ArialMT-41" x="111.199219"/>
     <use xlink:href="#ArialMT-71" x="177.898438"/>
     <use xlink:href="#ArialMT-75" x="233.513672"/>
     <use xlink:href="#ArialMT-61" x="289.128906"/>
    </g>
   </g>
  </g>
 </g>
 <defs>
  <clipPath id="pb5c51ef3e8">
   <rect x="97.696875" y="121.525466" width="720.535" height="202.137848"/>
  </clipPath>
  <clipPath id="p25fb9ba93c">
   <rect x="97.696875" y="359.17089" width="720.535" height="202.137848"/>
  </clipPath>
 </defs>
</svg>
